<?xml version="1.0" encoding="utf-8"?>
<!-- Generator: Adobe Illustrator 27.1.1, SVG Export Plug-In . SVG Version: 6.00 Build 0)  -->
<svg version="1.1" id="Capa_1" xmlns="http://www.w3.org/2000/svg" xmlns:xlink="http://www.w3.org/1999/xlink" x="0px" y="0px"
	 viewBox="0 0 249.53 196.28" style="enable-background:new 0 0 249.53 196.28;" xml:space="preserve">
<style type="text/css">
	.st0{fill:#294072;}
	.st1{fill:#DC9211;}
	.st2{fill:#E69600;}
</style>
<g>
	<path class="st0" d="M38.66,153.57c-0.17,0-0.32-0.06-0.46-0.19c-0.14-0.13-0.2-0.28-0.2-0.47v-16.42c0-0.18,0.07-0.34,0.2-0.47
		c0.14-0.13,0.29-0.19,0.46-0.19h8.09c1.54,0,2.8,0.2,3.78,0.61c0.98,0.41,1.71,0.99,2.18,1.75c0.47,0.76,0.71,1.7,0.71,2.81
		c0,0.57-0.11,1.09-0.34,1.53c-0.23,0.45-0.5,0.82-0.82,1.11c-0.32,0.3-0.62,0.51-0.91,0.65c0.66,0.29,1.23,0.77,1.72,1.46
		c0.49,0.68,0.74,1.47,0.74,2.35c0,1.18-0.27,2.18-0.8,2.99c-0.53,0.81-1.3,1.43-2.31,1.85c-1.01,0.42-2.23,0.63-3.69,0.63H38.66z
		 M43.45,142.69h2.71c0.54,0,0.94-0.15,1.19-0.46c0.25-0.31,0.38-0.66,0.38-1.06c0-0.41-0.13-0.76-0.38-1.06
		c-0.25-0.3-0.65-0.46-1.19-0.46h-2.71V142.69z M43.45,149.74h2.97c0.57,0,1-0.17,1.27-0.52c0.27-0.35,0.41-0.73,0.41-1.15
		c0-0.44-0.14-0.82-0.43-1.15c-0.29-0.33-0.7-0.49-1.24-0.49h-2.97V149.74z"/>
	<path class="st0" d="M56.63,153.57c-0.19,0-0.34-0.06-0.47-0.19c-0.13-0.13-0.19-0.28-0.19-0.47v-11.86c0-0.19,0.06-0.34,0.19-0.47
		c0.13-0.13,0.28-0.19,0.47-0.19h3.75c0.19,0,0.35,0.06,0.48,0.19s0.2,0.28,0.2,0.47v11.86c0,0.19-0.07,0.34-0.2,0.47
		c-0.13,0.13-0.3,0.19-0.48,0.19H56.63z M56.68,138.74c-0.19,0-0.34-0.06-0.47-0.19c-0.13-0.13-0.19-0.28-0.19-0.47v-2.66
		c0-0.19,0.06-0.35,0.19-0.48c0.13-0.13,0.28-0.2,0.47-0.2h3.65c0.19,0,0.35,0.07,0.48,0.2c0.14,0.14,0.2,0.3,0.2,0.48v2.66
		c0,0.18-0.07,0.34-0.2,0.47c-0.14,0.13-0.3,0.19-0.48,0.19H56.68z"/>
	<path class="st1" d="M70.06,153.82c-1.27,0-2.4-0.22-3.41-0.67c-1.01-0.45-1.81-1.11-2.41-1.98c-0.6-0.87-0.94-1.92-1-3.16
		c-0.02-0.27-0.03-0.61-0.03-1.01c0-0.41,0.01-0.75,0.03-1.04c0.07-1.25,0.4-2.31,0.99-3.18c0.59-0.87,1.39-1.53,2.41-1.98
		c1.01-0.45,2.15-0.67,3.42-0.67c1.25,0,2.32,0.18,3.21,0.53c0.89,0.35,1.61,0.79,2.15,1.32c0.55,0.52,0.96,1.05,1.23,1.57
		c0.27,0.53,0.41,0.96,0.43,1.32c0.02,0.18-0.05,0.34-0.19,0.47c-0.14,0.13-0.3,0.19-0.47,0.19h-4.08c-0.19,0-0.33-0.04-0.43-0.13
		c-0.1-0.08-0.2-0.21-0.28-0.38c-0.17-0.37-0.36-0.65-0.58-0.82c-0.22-0.18-0.51-0.27-0.89-0.27c-0.52,0-0.91,0.18-1.17,0.55
		c-0.25,0.36-0.39,0.9-0.41,1.61c-0.03,0.69-0.03,1.29,0,1.8c0.03,0.73,0.17,1.26,0.42,1.61c0.24,0.35,0.63,0.52,1.15,0.52
		c0.42,0,0.74-0.09,0.94-0.27c0.2-0.18,0.38-0.45,0.53-0.82c0.07-0.17,0.16-0.3,0.27-0.39c0.11-0.09,0.26-0.14,0.44-0.14h4.08
		c0.17,0,0.33,0.07,0.47,0.2c0.14,0.13,0.21,0.29,0.19,0.48c-0.02,0.24-0.11,0.55-0.27,0.95c-0.16,0.4-0.4,0.81-0.73,1.24
		c-0.33,0.43-0.76,0.84-1.31,1.23c-0.54,0.39-1.2,0.71-1.98,0.95C72.02,153.7,71.11,153.82,70.06,153.82"/>
	<path class="st1" d="M85.49,153.82c-2.11,0-3.79-0.54-5.03-1.64c-1.24-1.09-1.88-2.76-1.91-5.01v-0.26v-0.24
		c0.05-1.4,0.36-2.59,0.93-3.56c0.57-0.97,1.36-1.71,2.38-2.22c1.02-0.51,2.23-0.76,3.61-0.76c1.56,0,2.84,0.31,3.87,0.93
		c1.02,0.62,1.79,1.44,2.29,2.46c0.51,1.02,0.76,2.17,0.76,3.44v0.71c0,0.17-0.07,0.32-0.2,0.46c-0.14,0.14-0.3,0.2-0.48,0.2h-7.81
		v0.15c0,0.41,0.05,0.76,0.16,1.08c0.11,0.31,0.28,0.56,0.52,0.74c0.24,0.18,0.52,0.27,0.86,0.27c0.22,0,0.41-0.03,0.56-0.1
		c0.15-0.07,0.29-0.16,0.4-0.27c0.12-0.11,0.22-0.22,0.3-0.32c0.15-0.15,0.27-0.25,0.37-0.29c0.09-0.04,0.24-0.06,0.44-0.06h3.98
		c0.15,0,0.28,0.05,0.39,0.15c0.11,0.1,0.16,0.23,0.14,0.38c-0.02,0.3-0.16,0.67-0.43,1.1c-0.27,0.43-0.67,0.85-1.2,1.25
		c-0.53,0.4-1.21,0.74-2.04,1.01C87.53,153.68,86.57,153.82,85.49,153.82 M83.89,145.48h3.14v-0.05c0-0.46-0.06-0.85-0.18-1.17
		c-0.12-0.32-0.3-0.56-0.53-0.72c-0.24-0.16-0.53-0.24-0.86-0.24s-0.62,0.08-0.86,0.24c-0.24,0.16-0.41,0.4-0.53,0.72
		c-0.12,0.32-0.18,0.71-0.18,1.17V145.48z"/>
	<path class="st1" d="M95.12,153.57c-0.19,0-0.34-0.06-0.47-0.19c-0.13-0.13-0.19-0.28-0.19-0.47v-11.86c0-0.18,0.06-0.34,0.19-0.47
		c0.13-0.13,0.28-0.19,0.47-0.19h3.67c0.19,0,0.34,0.06,0.47,0.19c0.13,0.13,0.19,0.28,0.19,0.47v0.91
		c0.44-0.51,1.02-0.94,1.75-1.29c0.73-0.36,1.55-0.53,2.48-0.53c0.91,0,1.74,0.21,2.48,0.63c0.74,0.42,1.34,1.06,1.8,1.9
		c0.46,0.84,0.68,1.91,0.68,3.19v7.04c0,0.19-0.07,0.34-0.2,0.47c-0.14,0.13-0.3,0.19-0.48,0.19h-4.01c-0.19,0-0.34-0.06-0.47-0.19
		c-0.13-0.13-0.19-0.28-0.19-0.47v-6.87c0-0.62-0.15-1.11-0.46-1.45c-0.3-0.34-0.74-0.51-1.29-0.51c-0.56,0-1,0.17-1.32,0.51
		c-0.32,0.34-0.48,0.82-0.48,1.45v6.87c0,0.19-0.06,0.34-0.19,0.47c-0.13,0.13-0.28,0.19-0.47,0.19H95.12z"/>
	<path class="st1" d="M118.46,153.57c-1.15,0-2.16-0.17-3.03-0.51c-0.87-0.34-1.55-0.89-2.03-1.66c-0.48-0.77-0.72-1.79-0.72-3.05
		v-4.08h-2c-0.19,0-0.34-0.06-0.47-0.19c-0.13-0.13-0.19-0.28-0.19-0.47v-2.56c0-0.18,0.06-0.34,0.19-0.47
		c0.13-0.13,0.28-0.19,0.47-0.19h2v-4.16c0-0.19,0.06-0.34,0.19-0.47c0.13-0.13,0.28-0.19,0.47-0.19h3.68
		c0.18,0,0.34,0.06,0.47,0.19c0.13,0.13,0.19,0.28,0.19,0.47v4.16h3.19c0.19,0,0.34,0.06,0.47,0.19s0.19,0.28,0.19,0.47v2.56
		c0,0.19-0.06,0.34-0.19,0.47c-0.13,0.13-0.28,0.19-0.47,0.19h-3.19v3.65c0,0.49,0.1,0.87,0.3,1.15c0.2,0.28,0.52,0.42,0.96,0.42
		h2.13c0.19,0,0.34,0.06,0.47,0.19c0.13,0.13,0.19,0.28,0.19,0.47v2.76c0,0.19-0.06,0.34-0.19,0.47c-0.13,0.13-0.28,0.19-0.47,0.19
		H118.46z"/>
	<path class="st1" d="M130.15,153.82c-2.11,0-3.79-0.54-5.03-1.64c-1.24-1.09-1.88-2.76-1.91-5.01v-0.26v-0.24
		c0.05-1.4,0.36-2.59,0.92-3.56s1.36-1.71,2.38-2.22c1.02-0.51,2.23-0.76,3.61-0.76c1.56,0,2.84,0.31,3.87,0.93
		c1.02,0.62,1.79,1.44,2.29,2.46c0.51,1.02,0.76,2.17,0.76,3.44v0.71c0,0.17-0.07,0.32-0.2,0.46c-0.14,0.14-0.3,0.2-0.48,0.2h-7.81
		v0.15c0,0.41,0.05,0.76,0.16,1.08c0.11,0.31,0.28,0.56,0.52,0.74c0.24,0.18,0.52,0.27,0.86,0.27c0.22,0,0.4-0.03,0.56-0.1
		c0.15-0.07,0.29-0.16,0.4-0.27c0.12-0.11,0.22-0.22,0.3-0.32c0.15-0.15,0.28-0.25,0.37-0.29c0.09-0.04,0.24-0.06,0.44-0.06h3.98
		c0.15,0,0.28,0.05,0.39,0.15c0.11,0.1,0.15,0.23,0.14,0.38c-0.02,0.3-0.16,0.67-0.43,1.1c-0.27,0.43-0.67,0.85-1.2,1.25
		c-0.53,0.4-1.21,0.74-2.04,1.01C132.18,153.68,131.23,153.82,130.15,153.82 M128.55,145.48h3.14v-0.05c0-0.46-0.06-0.85-0.18-1.17
		c-0.12-0.32-0.3-0.56-0.53-0.72c-0.24-0.16-0.52-0.24-0.86-0.24s-0.62,0.08-0.86,0.24c-0.24,0.16-0.41,0.4-0.53,0.72
		s-0.18,0.71-0.18,1.17V145.48z"/>
	<path class="st2" d="M139.78,153.57c-0.19,0-0.34-0.06-0.47-0.19c-0.13-0.13-0.19-0.28-0.19-0.47v-11.86
		c0-0.18,0.06-0.34,0.19-0.47s0.28-0.19,0.47-0.19h3.68c0.18,0,0.34,0.06,0.47,0.19c0.13,0.13,0.19,0.28,0.19,0.47v0.91
		c0.44-0.51,1.02-0.94,1.75-1.29c0.73-0.36,1.55-0.53,2.48-0.53c0.91,0,1.74,0.21,2.48,0.63c0.74,0.42,1.34,1.06,1.8,1.9
		c0.46,0.84,0.68,1.91,0.68,3.19v7.04c0,0.19-0.07,0.34-0.2,0.47c-0.14,0.13-0.3,0.19-0.48,0.19h-4c-0.19,0-0.34-0.06-0.47-0.19
		c-0.13-0.13-0.19-0.28-0.19-0.47v-6.87c0-0.62-0.15-1.11-0.46-1.45c-0.3-0.34-0.73-0.51-1.29-0.51c-0.56,0-1,0.17-1.32,0.51
		c-0.32,0.34-0.48,0.82-0.48,1.45v6.87c0,0.19-0.06,0.34-0.19,0.47c-0.13,0.13-0.28,0.19-0.47,0.19H139.78z"/>
	<path class="st2" d="M159.87,153.82c-0.93,0-1.76-0.18-2.5-0.53c-0.73-0.35-1.31-0.83-1.72-1.43c-0.42-0.6-0.62-1.27-0.62-2.01
		c0-1.22,0.49-2.18,1.48-2.88s2.31-1.19,3.97-1.46l2.94-0.46v-0.18c0-0.52-0.09-0.92-0.25-1.18c-0.17-0.26-0.51-0.39-1.01-0.39
		c-0.36,0-0.64,0.07-0.86,0.2c-0.22,0.14-0.42,0.33-0.61,0.58c-0.17,0.19-0.39,0.28-0.66,0.28h-3.57c-0.17,0-0.31-0.05-0.42-0.15
		c-0.11-0.1-0.16-0.24-0.14-0.4c0.02-0.3,0.14-0.66,0.38-1.08c0.24-0.41,0.6-0.82,1.1-1.22c0.5-0.4,1.15-0.73,1.94-0.99
		c0.79-0.26,1.75-0.39,2.86-0.39c1.13,0,2.1,0.13,2.92,0.38c0.81,0.25,1.48,0.61,2,1.06c0.52,0.46,0.91,1.01,1.17,1.66
		c0.25,0.65,0.38,1.37,0.38,2.17v7.5c0,0.19-0.06,0.34-0.19,0.47c-0.13,0.13-0.28,0.19-0.47,0.19h-3.68c-0.19,0-0.35-0.06-0.48-0.19
		c-0.14-0.13-0.2-0.28-0.2-0.47v-0.81c-0.22,0.34-0.51,0.63-0.87,0.89c-0.36,0.25-0.79,0.46-1.27,0.61
		C161,153.74,160.46,153.82,159.87,153.82 M161.34,150.5c0.42,0,0.79-0.09,1.11-0.27c0.32-0.18,0.57-0.45,0.75-0.82
		c0.18-0.37,0.27-0.84,0.27-1.39v-0.18l-1.83,0.35c-0.62,0.12-1.06,0.29-1.32,0.51c-0.25,0.22-0.38,0.47-0.38,0.76
		c0,0.2,0.06,0.38,0.18,0.53c0.12,0.15,0.28,0.28,0.49,0.37C160.83,150.45,161.07,150.5,161.34,150.5"/>
	<path class="st2" d="M171.81,153.57c-0.19,0-0.34-0.06-0.47-0.19c-0.13-0.13-0.19-0.28-0.19-0.47v-11.86
		c0-0.18,0.06-0.34,0.19-0.47s0.28-0.19,0.47-0.19h3.67c0.18,0,0.34,0.06,0.47,0.19s0.19,0.28,0.19,0.47v0.94
		c0.51-0.49,1.08-0.88,1.73-1.17c0.65-0.29,1.37-0.43,2.14-0.43h1.14c0.18,0,0.35,0.06,0.48,0.19c0.14,0.13,0.2,0.28,0.2,0.47v3.27
		c0,0.19-0.07,0.34-0.2,0.47c-0.13,0.13-0.3,0.19-0.48,0.19h-2.84c-0.61,0-1.07,0.16-1.4,0.48c-0.32,0.32-0.48,0.79-0.48,1.39v6.06
		c0,0.19-0.06,0.34-0.19,0.47c-0.13,0.13-0.28,0.19-0.47,0.19H171.81z"/>
	<path class="st2" d="M184.12,153.57c-0.18,0-0.34-0.06-0.47-0.19c-0.13-0.13-0.19-0.28-0.19-0.47v-11.86
		c0-0.19,0.06-0.34,0.19-0.47c0.13-0.13,0.28-0.19,0.47-0.19h3.75c0.19,0,0.35,0.06,0.48,0.19c0.13,0.13,0.2,0.28,0.2,0.47v11.86
		c0,0.19-0.07,0.34-0.2,0.47c-0.14,0.13-0.3,0.19-0.48,0.19H184.12z M184.18,138.74c-0.19,0-0.34-0.06-0.47-0.19
		c-0.13-0.13-0.19-0.28-0.19-0.47v-2.66c0-0.19,0.06-0.35,0.19-0.48c0.13-0.13,0.28-0.2,0.47-0.2h3.65c0.19,0,0.35,0.07,0.48,0.2
		c0.13,0.14,0.2,0.3,0.2,0.48v2.66c0,0.18-0.07,0.34-0.2,0.47c-0.14,0.13-0.3,0.19-0.48,0.19H184.18z"/>
	<path class="st2" d="M197.78,153.82c-1.49,0-2.74-0.22-3.76-0.66c-1.02-0.44-1.8-1.09-2.34-1.94c-0.54-0.85-0.85-1.88-0.91-3.08
		c-0.02-0.35-0.02-0.74-0.02-1.16s0.01-0.81,0.02-1.17c0.07-1.22,0.39-2.25,0.96-3.09c0.58-0.85,1.37-1.49,2.4-1.93
		c1.02-0.44,2.24-0.66,3.66-0.66c1.42,0,2.64,0.22,3.66,0.66c1.02,0.44,1.82,1.08,2.4,1.93c0.57,0.84,0.9,1.88,0.96,3.09
		c0.03,0.35,0.05,0.74,0.05,1.17s-0.02,0.81-0.05,1.16c-0.07,1.2-0.37,2.23-0.91,3.08c-0.54,0.85-1.32,1.5-2.34,1.94
		C200.52,153.6,199.27,153.82,197.78,153.82 M197.78,150.25c0.62,0,1.06-0.19,1.29-0.56c0.24-0.37,0.37-0.93,0.4-1.67
		c0.02-0.25,0.03-0.6,0.03-1.04c0-0.44-0.01-0.79-0.03-1.04c-0.03-0.73-0.17-1.28-0.4-1.66c-0.24-0.38-0.67-0.57-1.29-0.57
		c-0.61,0-1.03,0.19-1.27,0.57c-0.24,0.38-0.38,0.93-0.43,1.66c-0.02,0.25-0.03,0.6-0.03,1.04c0,0.44,0.01,0.79,0.03,1.04
		c0.05,0.74,0.19,1.3,0.43,1.67C196.75,150.06,197.18,150.25,197.78,150.25"/>
	<rect x="120.14" y="158.47" class="st0" width="0.85" height="11.84"/>
	<path class="st0" d="M130.93,170.31h-0.83v-4.84c0-1.12-0.16-1.94-0.48-2.45c-0.32-0.51-0.82-0.77-1.51-0.77
		c-0.37,0-0.73,0.07-1.09,0.2c-0.36,0.13-0.7,0.32-1.01,0.57c-0.31,0.24-0.58,0.53-0.82,0.86c-0.23,0.33-0.41,0.68-0.52,1.06v5.37
		h-0.83v-8.67h0.78v2.07c0.18-0.33,0.4-0.64,0.66-0.91c0.26-0.27,0.56-0.51,0.88-0.7c0.33-0.19,0.68-0.35,1.04-0.45
		c0.37-0.1,0.74-0.16,1.13-0.16c0.94,0,1.61,0.33,2,0.99c0.39,0.66,0.58,1.61,0.58,2.84V170.31z"/>
	<path class="st0" d="M146.19,170.31h-0.83v-4.84c0-1.1-0.17-1.91-0.51-2.43c-0.34-0.52-0.86-0.78-1.56-0.78
		c-0.36,0-0.7,0.07-1.02,0.2c-0.32,0.13-0.62,0.32-0.88,0.56c-0.27,0.24-0.5,0.52-0.69,0.85s-0.35,0.69-0.46,1.09v5.35h-0.84v-4.84
		c0-1.11-0.17-1.93-0.5-2.44c-0.33-0.52-0.85-0.78-1.55-0.78c-0.35,0-0.69,0.06-1.01,0.19c-0.32,0.13-0.61,0.31-0.88,0.55
		c-0.27,0.24-0.5,0.52-0.71,0.85c-0.21,0.33-0.36,0.69-0.47,1.09v5.37h-0.83v-8.67h0.78v2.07c0.36-0.7,0.82-1.25,1.4-1.63
		c0.58-0.39,1.22-0.58,1.92-0.58c0.74,0,1.33,0.22,1.79,0.65c0.46,0.43,0.73,1,0.82,1.7c0.82-1.57,1.96-2.35,3.4-2.35
		c0.95,0,1.62,0.34,2.03,1.01c0.41,0.67,0.61,1.62,0.61,2.83V170.31z"/>
	<path class="st0" d="M152.35,170.48c-0.61,0-1.18-0.12-1.69-0.36c-0.52-0.24-0.97-0.57-1.34-0.98c-0.38-0.41-0.67-0.89-0.88-1.43
		c-0.21-0.54-0.32-1.12-0.32-1.72c0-0.61,0.11-1.19,0.33-1.74c0.22-0.54,0.51-1.02,0.89-1.43c0.38-0.41,0.83-0.74,1.34-0.98
		c0.52-0.24,1.08-0.36,1.68-0.36c0.6,0,1.16,0.12,1.67,0.36c0.51,0.24,0.96,0.57,1.34,0.98c0.38,0.41,0.69,0.89,0.9,1.43
		c0.22,0.54,0.33,1.12,0.33,1.74c0,0.6-0.11,1.17-0.33,1.72c-0.22,0.54-0.51,1.02-0.89,1.43c-0.38,0.41-0.83,0.74-1.34,0.98
		C153.51,170.36,152.95,170.48,152.35,170.48 M148.95,166.03c0,0.51,0.09,0.99,0.27,1.44c0.18,0.45,0.42,0.84,0.73,1.18
		c0.31,0.33,0.66,0.6,1.08,0.79c0.41,0.2,0.85,0.29,1.32,0.29s0.91-0.1,1.32-0.29c0.41-0.19,0.77-0.46,1.08-0.81
		c0.31-0.35,0.56-0.74,0.73-1.19c0.18-0.45,0.27-0.94,0.27-1.46c0-0.51-0.09-0.99-0.27-1.44c-0.18-0.45-0.42-0.85-0.73-1.18
		c-0.31-0.34-0.67-0.61-1.08-0.81c-0.41-0.2-0.84-0.3-1.31-0.3c-0.47,0-0.91,0.1-1.32,0.3c-0.41,0.2-0.77,0.47-1.08,0.82
		c-0.31,0.34-0.55,0.75-0.74,1.21C149.04,165.03,148.95,165.52,148.95,166.03"/>
	<path class="st0" d="M162.64,170.48c-0.68,0-1.31-0.18-1.9-0.53c-0.59-0.36-1.05-0.81-1.38-1.37v1.73h-0.77v-12.18h0.83v5.39
		c0.41-0.6,0.9-1.09,1.46-1.47c0.56-0.38,1.21-0.57,1.94-0.57c0.61,0,1.16,0.13,1.66,0.39c0.49,0.26,0.91,0.61,1.25,1.04
		c0.34,0.43,0.6,0.91,0.78,1.45c0.18,0.54,0.28,1.09,0.28,1.64c0,0.6-0.11,1.17-0.32,1.71s-0.5,1.01-0.88,1.42
		c-0.37,0.41-0.81,0.73-1.32,0.98C163.78,170.36,163.23,170.48,162.64,170.48 M162.47,169.73c0.51,0,0.98-0.1,1.4-0.32
		c0.42-0.21,0.79-0.49,1.09-0.84c0.31-0.35,0.55-0.75,0.72-1.19c0.17-0.45,0.26-0.9,0.26-1.37c0-0.49-0.08-0.96-0.24-1.41
		c-0.16-0.45-0.39-0.85-0.68-1.2c-0.3-0.35-0.65-0.63-1.05-0.84c-0.41-0.21-0.85-0.32-1.34-0.32c-0.37,0-0.71,0.06-1.03,0.19
		c-0.32,0.13-0.62,0.3-0.89,0.51c-0.27,0.21-0.52,0.46-0.73,0.73c-0.22,0.28-0.4,0.57-0.54,0.87v2.87c0.03,0.32,0.16,0.62,0.37,0.91
		c0.21,0.28,0.46,0.53,0.76,0.73c0.29,0.21,0.61,0.37,0.96,0.49C161.85,169.67,162.17,169.73,162.47,169.73"/>
	<path class="st0" d="M168.8,158.14h0.83v1.54h-0.83V158.14z M168.8,161.64h0.83v8.67h-0.83V161.64z"/>
	<path class="st0" d="M172.32,158.14h0.85v10.46c0,0.32,0.09,0.58,0.27,0.77c0.18,0.19,0.44,0.28,0.76,0.28
		c0.12,0,0.27-0.01,0.44-0.04c0.17-0.03,0.33-0.07,0.47-0.12l0.17,0.67c-0.19,0.08-0.42,0.14-0.7,0.19
		c-0.28,0.05-0.52,0.07-0.72,0.07c-0.47,0-0.84-0.14-1.13-0.42c-0.28-0.28-0.42-0.67-0.42-1.14V158.14z"/>
	<path class="st0" d="M176.57,158.14h0.83v1.54h-0.83V158.14z M176.57,161.64h0.83v8.67h-0.83V161.64z"/>
	<path class="st0" d="M182.16,170.48c-0.4,0-0.77-0.07-1.12-0.21c-0.35-0.14-0.65-0.33-0.91-0.57c-0.26-0.24-0.46-0.52-0.61-0.85
		c-0.14-0.33-0.22-0.68-0.22-1.06c0-0.38,0.09-0.72,0.27-1.03c0.18-0.31,0.43-0.58,0.74-0.81c0.32-0.23,0.7-0.41,1.14-0.53
		c0.45-0.13,0.93-0.19,1.47-0.19c0.47,0,0.94,0.04,1.41,0.12c0.47,0.08,0.9,0.2,1.28,0.34v-0.85c0-0.82-0.23-1.47-0.7-1.96
		c-0.47-0.48-1.1-0.73-1.9-0.73c-0.42,0-0.87,0.09-1.34,0.27c-0.47,0.18-0.95,0.43-1.44,0.77l-0.32-0.57
		c1.11-0.76,2.17-1.13,3.17-1.13c1.05,0,1.87,0.3,2.47,0.91c0.6,0.61,0.9,1.44,0.9,2.51v4.24c0,0.28,0.12,0.42,0.37,0.42v0.75
		c-0.06,0.01-0.11,0.02-0.18,0.03c-0.06,0.01-0.12,0.01-0.16,0.01c-0.22,0-0.4-0.07-0.53-0.22c-0.13-0.15-0.21-0.33-0.23-0.54v-0.72
		c-0.4,0.52-0.91,0.92-1.53,1.2C183.55,170.34,182.88,170.48,182.16,170.48 M182.32,169.81c0.64,0,1.24-0.12,1.78-0.37
		c0.54-0.25,0.95-0.57,1.24-0.97c0.18-0.23,0.27-0.46,0.27-0.67v-1.53c-0.4-0.15-0.82-0.27-1.25-0.35
		c-0.43-0.08-0.88-0.12-1.35-0.12c-0.43,0-0.83,0.05-1.18,0.14c-0.35,0.09-0.66,0.23-0.92,0.39c-0.26,0.17-0.45,0.37-0.59,0.61
		c-0.14,0.24-0.21,0.5-0.21,0.79c0,0.29,0.06,0.56,0.17,0.82c0.11,0.26,0.27,0.48,0.47,0.66c0.2,0.18,0.44,0.33,0.71,0.43
		S182.01,169.81,182.32,169.81"/>
	<path class="st0" d="M193.08,162.39c-0.78,0.02-1.46,0.25-2.04,0.69c-0.58,0.44-0.99,1.04-1.23,1.81v5.42h-0.83v-8.67h0.8v2.14
		c0.3-0.61,0.7-1.11,1.19-1.49c0.49-0.38,1.02-0.6,1.59-0.66c0.11-0.01,0.21-0.02,0.3-0.02h0.22V162.39z"/>
	<path class="st0" d="M194.67,158.14h0.83v1.54h-0.83V158.14z M194.67,161.64h0.83v8.67h-0.83V161.64z"/>
	<path class="st0" d="M200.26,170.48c-0.4,0-0.77-0.07-1.12-0.21c-0.35-0.14-0.65-0.33-0.91-0.57c-0.26-0.24-0.46-0.52-0.61-0.85
		c-0.14-0.33-0.22-0.68-0.22-1.06c0-0.38,0.09-0.72,0.27-1.03c0.18-0.31,0.43-0.58,0.74-0.81c0.32-0.23,0.7-0.41,1.14-0.53
		c0.45-0.13,0.93-0.19,1.47-0.19c0.47,0,0.94,0.04,1.41,0.12c0.47,0.08,0.9,0.2,1.28,0.34v-0.85c0-0.82-0.23-1.47-0.7-1.96
		c-0.47-0.48-1.1-0.73-1.9-0.73c-0.42,0-0.87,0.09-1.34,0.27c-0.47,0.18-0.95,0.43-1.44,0.77l-0.32-0.57
		c1.11-0.76,2.17-1.13,3.17-1.13c1.05,0,1.87,0.3,2.47,0.91c0.6,0.61,0.9,1.44,0.9,2.51v4.24c0,0.28,0.12,0.42,0.37,0.42v0.75
		c-0.06,0.01-0.11,0.02-0.18,0.03c-0.06,0.01-0.12,0.01-0.16,0.01c-0.22,0-0.4-0.07-0.53-0.22c-0.13-0.15-0.21-0.33-0.23-0.54v-0.72
		c-0.4,0.52-0.91,0.92-1.53,1.2C201.65,170.34,200.98,170.48,200.26,170.48 M200.42,169.81c0.64,0,1.24-0.12,1.78-0.37
		c0.54-0.25,0.95-0.57,1.24-0.97c0.18-0.23,0.27-0.46,0.27-0.67v-1.53c-0.4-0.15-0.82-0.27-1.25-0.35
		c-0.43-0.08-0.88-0.12-1.35-0.12c-0.43,0-0.83,0.05-1.18,0.14c-0.35,0.09-0.66,0.23-0.92,0.39c-0.26,0.17-0.45,0.37-0.59,0.61
		c-0.14,0.24-0.21,0.5-0.21,0.79c0,0.29,0.06,0.56,0.17,0.82c0.11,0.26,0.27,0.48,0.47,0.66c0.2,0.18,0.44,0.33,0.71,0.43
		S200.11,169.81,200.42,169.81"/>
	<path class="st0" d="M160.37,82.2l-21.6-21.28c-16.36,23.32-49.06,16.01-41.93,4.53l24.53-24.01C116.33,34.86,108.51,31,100.21,31
		h-26.9c-0.56,0-1.01,0.43-1.03,0.99c-0.22,8.25-0.38,20.8-0.14,28.22c0.28,8.49,3.34,12.23,9.29,18.31l42.02,42.91
		c0.76,0.78,2.02,0.77,2.77-0.03l4.49-4.78c0.74-0.78,0.69-2.01-0.1-2.73l-8.14-7.42c-0.62-0.57-0.71-1.53-0.2-2.2l1.06-1.43
		c0.63-0.83,1.83-0.94,2.59-0.23l7.57,7.06c0.8,0.75,2.05,0.69,2.77-0.12l3.37-3.76c0.69-0.77,0.66-1.94-0.07-2.67l-8.1-8.1
		c-0.58-0.57-0.58-1.51,0-2.08l1.41-1.41c0.57-0.57,1.49-0.58,2.07-0.02l8.72,8.45c0.76,0.73,1.97,0.72,2.72-0.03l4.59-4.58
		c0.74-0.74,0.7-1.96-0.08-2.65l-8.71-7.65c-0.73-0.64-0.79-1.75-0.14-2.47l1.09-1.2c0.66-0.72,1.79-0.76,2.49-0.08l8.09,7.84
		c0.78,0.75,2.02,0.72,2.76-0.06l3.95-4.16C161.15,84.16,161.13,82.94,160.37,82.2 M102.43,53.85l-4.48,4.02l-4.01-4.48l4.47-4.01
		L102.43,53.85z M93.35,43.73l4.01,4.48l-4.47,4.01l-4.01-4.48L93.35,43.73z M83.39,52.66l4.47-4.01l4.02,4.48l-4.48,4.01
		L83.39,52.66z M88.45,58.31l4.48-4.01l4.01,4.47l-4.48,4.02L88.45,58.31z"/>
	<path class="st2" d="M174.9,31.08l-33.83-0.01c-2.13,0-4.18,0.88-5.65,2.44l-33.88,35.76c17.05,7.66,25.76-3.68,37.42-15.31
		l26.01,26.2c0.69,0.69,1.84,0.65,2.48-0.09l5.51-6.45c2.21-2.58,3.43-5.87,3.43-9.27V32.49C176.39,31.68,175.71,31.03,174.9,31.08
		 M154.99,44.09l4.01,4.48l-4.47,4.01l-4.02-4.47L154.99,44.09z M145.02,53.03l4.48-4.02l4.01,4.48l-4.47,4.01L145.02,53.03z
		 M154.1,63.15l-4.01-4.48l4.47-4.01l4.02,4.48L154.1,63.15z M159.59,58.23l-4.01-4.48l4.47-4.01l4.01,4.48L159.59,58.23z"/>
</g>
</svg>
