<svg width="667" height="667" viewBox="0 0 667 667" fill="none" xmlns="http://www.w3.org/2000/svg">
<mask id="mask0_102_3" style="mask-type:luminance" maskUnits="userSpaceOnUse" x="0" y="0" width="667" height="667">
<path d="M0 6.10352e-05H666.667V666.667H0V6.10352e-05Z" fill="white"/>
</mask>
<g mask="url(#mask0_102_3)">
<path d="M107.343 435.741C107.343 435.741 106.944 407.278 95.1178 384.042C83.2911 360.805 65.4124 345.257 47.6044 342.052C29.7978 338.846 13.6578 353.917 31.7338 367.168C49.8098 380.42 82.7778 395.388 94.2578 439.364L107.343 435.741Z" fill="#3CA73D"/>
<mask id="mask1_102_3" style="mask-type:luminance" maskUnits="userSpaceOnUse" x="23" y="341" width="85" height="99">
<path d="M23.8177 341.615H107.343V439.364H23.8177V341.615Z" fill="white"/>
</mask>
<g mask="url(#mask1_102_3)">
<g opacity="0.149994">
<path d="M107.343 435.741C107.343 435.741 106.944 407.278 95.1178 384.042C83.2911 360.805 65.4124 345.257 47.6044 342.052C29.7978 338.846 13.6578 353.917 31.7338 367.168C49.8098 380.42 82.7778 395.388 94.2578 439.364L107.343 435.741Z" fill="black"/>
</g>
</g>
<path d="M102.808 427.908C102.873 427.902 102.939 427.892 103.003 427.872C103.515 427.721 103.807 427.185 103.655 426.676C89.3574 378.142 55.2374 355.076 39.192 349.66C38.6907 349.486 38.1427 349.762 37.9707 350.265C37.8014 350.77 38.0707 351.316 38.576 351.486C54.292 356.792 87.7334 379.449 101.808 427.22C101.939 427.666 102.364 427.944 102.808 427.908Z" fill="white"/>
<path d="M109.149 462.6C102.538 466.403 98.7477 468.862 86.6211 469.883C79.3878 470.494 69.5998 469.467 61.1571 466.426C58.9078 465.615 55.4291 463.84 57.3851 461.675C58.3957 460.556 70.2878 458.668 74.5424 453.664C69.5638 454.995 63.0158 456.508 57.8624 456.62C52.7091 456.734 47.3477 455.498 43.3944 452.192C39.4691 448.91 37.3464 444.008 35.3584 439.294C34.6798 437.684 34.0357 435.711 35.0771 434.308C35.7397 433.418 36.8891 433.067 37.9584 432.768C42.4637 431.515 46.9678 430.26 51.4731 429.007C54.4131 428.38 52.3384 426.436 51.2264 426.272C49.2957 425.986 47.4504 425.992 46.3264 426.052C41.1664 426.328 35.4678 427.3 31.2558 424.307C28.7344 422.515 27.2478 419.548 26.6171 416.52C26.3944 415.455 25.5064 401.53 26.1184 401.362C29.4718 400.448 32.9851 399.962 36.4291 399.568C39.6971 399.194 42.8811 399.042 46.1371 398.602C49.8131 398.106 53.5224 397.862 57.2318 397.875C58.4904 397.879 59.8197 397.932 60.8838 398.604C62.3464 399.527 62.9277 401.371 63.1144 403.09C63.2998 404.81 63.2104 406.591 63.8091 408.212C65.3918 408.075 65.9091 406.018 65.8691 404.43C65.8278 402.84 65.8584 400.858 67.2918 400.172C68.0198 399.824 68.8758 399.964 69.6664 400.127C74.7024 401.158 79.6144 402.792 84.2638 404.982C86.3918 405.983 88.5158 407.142 90.0464 408.927C92.3064 411.562 92.9731 415.216 92.9931 418.687C93.0131 422.159 92.4758 425.628 92.7024 429.091C95.4184 426.666 99.1958 419.291 99.4931 415.662C105.333 419.416 108.794 427.156 109.882 437.739C110.6 444.719 110.424 453.918 109.454 460.996C109.42 461.239 109.365 462.475 109.149 462.6Z" fill="#3CA73D"/>
<mask id="mask2_102_3" style="mask-type:luminance" maskUnits="userSpaceOnUse" x="25" y="397" width="86" height="74">
<path d="M25.9068 397.873H110.321V470.052H25.9068V397.873Z" fill="white"/>
</mask>
<g mask="url(#mask2_102_3)">
<g opacity="0.300003">
<path d="M109.149 462.6C102.538 466.403 98.7477 468.862 86.6211 469.883C79.3877 470.494 69.5997 469.467 61.1571 466.426C58.9077 465.615 55.4291 463.84 57.3851 461.675C58.3957 460.556 70.2877 458.668 74.5424 453.664C69.5637 454.995 63.0157 456.508 57.8624 456.62C52.7091 456.734 47.3477 455.498 43.3944 452.192C39.4691 448.91 37.3464 444.008 35.3584 439.294C34.6797 437.684 34.0357 435.711 35.0771 434.308C35.7397 433.418 36.8891 433.067 37.9584 432.768C42.4637 431.515 46.9677 430.26 51.4731 429.007C54.4131 428.38 52.3384 426.436 51.2264 426.272C49.2957 425.986 47.4504 425.992 46.3264 426.052C41.1664 426.328 35.4677 427.3 31.2557 424.307C28.7344 422.515 27.2477 419.548 26.6171 416.52C26.3944 415.455 25.5064 401.53 26.1184 401.362C29.4717 400.448 32.9851 399.962 36.4291 399.568C39.6971 399.194 42.8811 399.042 46.1371 398.602C49.8131 398.106 53.5224 397.862 57.2317 397.875C58.4904 397.879 59.8197 397.932 60.8837 398.604C62.3464 399.527 62.9277 401.371 63.1144 403.09C63.2997 404.81 63.2104 406.591 63.8091 408.212C65.3917 408.075 65.9091 406.018 65.8691 404.43C65.8277 402.84 65.8584 400.858 67.2917 400.172C68.0197 399.824 68.8757 399.964 69.6664 400.127C74.7024 401.158 79.6144 402.792 84.2637 404.982C86.3917 405.983 88.5157 407.142 90.0464 408.927C92.3064 411.562 92.9731 415.216 92.9931 418.687C93.0131 422.159 92.4757 425.628 92.7024 429.091C95.4184 426.666 99.1957 419.291 99.4931 415.662C105.333 419.416 108.794 427.156 109.882 437.739C110.6 444.719 110.424 453.918 109.454 460.996C109.42 461.239 109.365 462.475 109.149 462.6Z" fill="black"/>
</g>
</g>
<path d="M108.057 461.284C107.767 461.284 107.489 461.127 107.346 460.853C88.4314 424.532 46.5847 409.225 36.4154 407.115C35.982 407.025 35.7034 406.6 35.794 406.168C35.8847 405.736 36.3154 405.468 36.7407 405.547C47.0687 407.691 89.5594 423.233 108.765 460.113C108.97 460.505 108.817 460.988 108.425 461.193C108.306 461.255 108.181 461.284 108.057 461.284Z" fill="white"/>
<path d="M53.0905 440.354C52.6772 440.354 52.3279 440.037 52.2932 439.617C52.2599 439.177 52.5892 438.791 53.0292 438.757C73.9052 437.117 80.6572 428.943 80.7239 428.861C80.9972 428.514 81.4999 428.459 81.8452 428.731C82.1905 429.006 82.2505 429.506 81.9785 429.853C81.6959 430.211 74.8185 438.65 53.1545 440.353C53.1332 440.354 53.1119 440.354 53.0905 440.354Z" fill="white"/>
<path d="M613.38 339.063C604.128 349.183 587.154 365.837 577.287 381.917C577.26 381.957 577.234 381.997 577.22 382.037C573.367 388.343 570.607 394.557 569.847 400.25L569.154 410.53L564.927 408.09L564.22 407.677L562.474 406.677C559.971 405.227 558.4 402.577 558.322 399.685C557.643 374.617 564.342 353.309 570.82 340.411C579.687 322.798 596.3 304.837 610.742 306.597C624.167 308.237 626.287 324.957 613.38 339.063Z" fill="#3CA73D"/>
<mask id="mask3_102_3" style="mask-type:luminance" maskUnits="userSpaceOnUse" x="558" y="306" width="65" height="105">
<path d="M558.273 306.476H622.016V410.529H558.273V306.476Z" fill="white"/>
</mask>
<g mask="url(#mask3_102_3)">
<g opacity="0.149994">
<path d="M613.38 339.063C604.128 349.183 587.154 365.837 577.287 381.917C577.26 381.957 577.234 381.997 577.22 382.037C573.367 388.343 570.607 394.557 569.847 400.25L569.154 410.53L564.927 408.09L564.22 407.677L562.474 406.677C559.971 405.227 558.4 402.577 558.322 399.685C557.643 374.617 564.342 353.309 570.82 340.411C579.687 322.798 596.3 304.837 610.742 306.597C624.167 308.237 626.287 324.957 613.38 339.063Z" fill="black"/>
</g>
</g>
<path d="M606.566 316.316C588.886 327.49 563.648 366.436 564.22 407.676L562.474 406.676C562.326 365.183 587.78 326.143 605.634 314.85C606.046 314.583 606.581 314.716 606.833 315.13C607.088 315.53 606.968 316.063 606.566 316.316Z" fill="white"/>
<path d="M623.861 372.103C620.779 380.463 603.207 387.716 590.233 399.783C586.825 402.961 583.853 406.236 581.335 409.453C578.826 412.663 574.334 413.517 570.807 411.476L569.261 410.583L569.154 410.529L564.927 408.089C567.434 398.649 571.941 389.703 577.221 382.036C577.233 381.996 577.261 381.956 577.286 381.916C585.874 369.463 596.474 360.463 603.874 358.423C618.421 354.423 627.554 362.063 623.861 372.103Z" fill="#3CA73D"/>
<mask id="mask4_102_3" style="mask-type:luminance" maskUnits="userSpaceOnUse" x="564" y="357" width="61" height="56">
<path d="M564.927 357.34H624.681V412.58H564.927V357.34Z" fill="white"/>
</mask>
<g mask="url(#mask4_102_3)">
<g opacity="0.300003">
<path d="M623.861 372.103C620.779 380.463 603.207 387.716 590.233 399.783C586.825 402.961 583.853 406.236 581.335 409.453C578.826 412.663 574.334 413.517 570.807 411.476L569.261 410.583L569.154 410.529L564.927 408.089C567.434 398.649 571.941 389.703 577.221 382.036C577.233 381.996 577.261 381.956 577.286 381.916C585.874 369.463 596.474 360.463 603.874 358.423C618.421 354.423 627.554 362.063 623.861 372.103Z" fill="black"/>
</g>
</g>
<path d="M611.5 367.076C600.873 370.076 580.287 383.036 570.807 411.476L569.26 410.583C578.873 381.796 599.34 368.703 611.033 365.409C611.513 365.276 611.968 365.543 612.1 366.009C612.233 366.476 611.968 366.956 611.5 367.076Z" fill="white"/>
</g>
<mask id="mask5_102_3" style="mask-type:luminance" maskUnits="userSpaceOnUse" x="0" y="0" width="667" height="667">
<path d="M0 6.10352e-05H666.667V666.667H0V6.10352e-05Z" fill="white"/>
</mask>
<g mask="url(#mask5_102_3)">
<path d="M97.4655 479.078C97.4655 483.705 100.929 489.454 105.2 491.921L273.581 589.155C277.853 591.622 284.779 591.622 289.049 589.155L585.552 417.97C589.823 415.503 593.287 409.754 593.287 405.127C593.287 400.499 589.824 394.75 585.552 392.285L417.171 295.05C412.899 292.583 405.973 292.583 401.701 295.05L105.199 466.235C100.927 468.701 97.4655 474.451 97.4655 479.078Z" fill="#375A64"/>
<path d="M593.292 405.128C593.292 409.759 589.825 415.5 585.554 417.967L289.046 589.162C286.912 590.382 284.11 591.006 281.324 591.006V574.256C284.11 574.256 286.912 573.632 289.046 572.399L585.554 401.219C589.296 399.063 589.764 395.726 586.957 393.272C590.55 396.064 593.292 401.023 593.292 405.128Z" fill="#2B454E"/>
<path d="M281.32 574.264V591C278.516 591 275.712 590.394 273.586 589.16L105.197 491.922C100.928 489.456 97.4622 483.706 97.4622 479.079C97.4622 474.739 100.517 469.416 104.41 466.738C100.945 469.22 101.213 472.863 105.197 475.168L273.586 572.407C275.712 573.639 278.516 574.264 281.32 574.264Z" fill="#1A2E35"/>
<path d="M90.2103 466.512C86.4303 463.845 86.4223 460.292 86.4223 455.36L86.4196 206.192C86.4196 201.26 89.8823 195.262 94.1543 192.797L390.656 21.6118C394.928 19.1451 398.868 20.9318 402.876 23.2451C406.881 25.5598 409.436 27.5544 409.436 32.4864V281.654C409.436 286.586 405.974 292.584 401.702 295.05L105.198 466.234C98.7329 470.594 94.3249 469.414 90.2103 466.512Z" fill="#2B454E"/>
<path d="M105.199 466.238C98.7345 470.59 94.3185 469.413 90.2105 466.508C86.4345 463.845 86.4225 460.288 86.4225 455.36V206.196C86.4225 203.726 87.2932 201 88.6745 198.581L99.7212 205.006C98.3252 207.412 97.4678 210.138 97.4678 212.596V461.772C97.4678 466.7 100.924 468.696 105.199 466.238Z" fill="#1A2E35"/>
<path d="M409.439 32.4799C409.439 27.5585 405.972 25.5612 401.702 28.0159L105.193 199.209C103.059 200.444 101.117 202.564 99.7308 204.991L88.6948 198.572H88.6801C90.0815 196.145 92.0228 194.024 94.1575 192.789L390.651 21.6092C394.921 19.1412 398.862 20.9265 402.868 23.2426C406.875 25.5585 409.439 27.5585 409.439 32.4799Z" fill="#375A64"/>
<path d="M109.359 208.128L395.225 43.1263C397.789 41.6463 399.865 42.8463 399.865 45.8049V274.346C399.865 277.305 397.789 280.904 395.225 282.384L109.359 447.382C106.796 448.862 104.719 447.662 104.719 444.704V216.165C104.719 213.206 106.796 209.608 109.359 208.128Z" fill="#1A2E35"/>
<path d="M109.359 208.128C106.796 209.608 104.719 213.206 104.719 216.165V443.325L388.904 279.297C391.467 277.817 393.544 274.218 393.544 271.26V44.097L109.359 208.128Z" fill="#3CA73D"/>
<mask id="mask6_102_3" style="mask-type:luminance" maskUnits="userSpaceOnUse" x="104" y="44" width="290" height="400">
<path d="M104.718 44.096H393.544V443.325H104.718V44.096Z" fill="white"/>
</mask>
<g mask="url(#mask6_102_3)">
<g opacity="0.649994">
<path d="M109.359 208.128C106.796 209.608 104.719 213.206 104.719 216.165V443.325L388.904 279.297C391.467 277.817 393.544 274.218 393.544 271.26V44.097L109.359 208.128Z" fill="white"/>
</g>
</g>
<path d="M126.601 466.692L401.821 307.796C403.956 306.563 407.418 306.563 409.554 307.797L417.561 312.003C419.697 313.236 419.697 315.235 417.561 316.468L142.301 475.339C140.165 476.571 136.702 476.571 134.566 475.339L126.601 471.157C124.465 469.924 124.465 467.925 126.601 466.692Z" fill="#2B454E"/>
<path d="M148.187 479.528L423.403 320.631C425.539 319.397 428.703 319.225 430.47 320.245L502.103 361.607C503.873 362.625 503.573 364.452 501.437 365.685L226.542 524.367C224.406 525.6 221.238 525.777 219.466 524.763L147.527 483.596C145.757 482.583 146.051 480.761 148.187 479.528Z" fill="#1A2E35"/>
<path d="M292.299 410.241C292.599 410.414 293.139 410.384 293.505 410.172L302.122 405.197C302.489 404.985 302.543 404.674 302.243 404.501L294.641 400.112C294.342 399.938 293.801 399.97 293.435 400.181L284.818 405.157C284.453 405.368 284.399 405.68 284.699 405.852L292.299 410.241ZM395.701 347.322C395.999 347.496 396.539 347.465 396.906 347.254L405.523 342.278C405.889 342.068 405.942 341.756 405.642 341.582L403.619 340.414C403.319 340.241 402.779 340.272 402.413 340.484L393.795 345.458C393.431 345.67 393.377 345.982 393.677 346.156L395.701 347.322ZM461.329 369.908L469.946 364.932C470.314 364.72 470.367 364.409 470.067 364.236L462.466 359.848C462.166 359.673 461.626 359.705 461.261 359.916L452.643 364.89C452.277 365.102 452.223 365.414 452.523 365.586L460.123 369.976C460.423 370.149 460.963 370.118 461.329 369.908ZM436.855 342C437.157 342.172 437.695 342.141 438.061 341.93L446.678 336.956C447.046 336.744 447.098 336.433 446.799 336.26L439.198 331.87C438.898 331.697 438.358 331.728 437.993 331.938L429.375 336.914C429.007 337.126 428.954 337.438 429.255 337.61L436.855 342ZM420.887 332.78C421.189 332.953 421.727 332.922 422.094 332.712L430.711 327.737C431.077 327.525 431.131 327.213 430.83 327.041L428.807 325.872C428.507 325.7 427.967 325.729 427.602 325.941L418.985 330.916C418.618 331.128 418.565 331.44 418.865 331.613L420.887 332.78ZM383.105 354.594C383.405 354.768 383.945 354.737 384.311 354.525L392.929 349.549C393.294 349.338 393.347 349.028 393.049 348.854L391.025 347.685C390.725 347.513 390.185 347.544 389.821 347.754L381.203 352.73C380.835 352.941 380.782 353.253 381.082 353.426L383.105 354.594ZM317.489 395.698C317.787 395.872 318.327 395.841 318.694 395.63L327.311 390.654C327.677 390.444 327.73 390.132 327.43 389.958L319.83 385.57C319.53 385.397 318.99 385.428 318.625 385.638L310.007 390.614C309.641 390.825 309.587 391.137 309.887 391.31L317.489 395.698ZM304.894 402.97C305.194 403.142 305.734 403.112 306.099 402.901L314.717 397.926C315.082 397.714 315.137 397.402 314.837 397.229L307.235 392.841C306.935 392.668 306.395 392.698 306.03 392.91L297.413 397.885C297.046 398.098 296.994 398.408 297.293 398.581L304.894 402.97ZM358.054 372.277C358.354 372.452 358.894 372.42 359.262 372.209L367.878 367.233C368.243 367.022 368.298 366.71 367.997 366.538L360.395 362.149C360.097 361.976 359.557 362.006 359.191 362.217L350.574 367.193C350.209 367.405 350.154 367.716 350.453 367.889L358.054 372.277ZM330.082 388.428C330.382 388.601 330.922 388.57 331.289 388.358L339.906 383.384C340.271 383.173 340.326 382.86 340.025 382.686L332.425 378.298C332.125 378.126 331.585 378.157 331.218 378.369L322.602 383.344C322.235 383.554 322.182 383.866 322.482 384.04L330.082 388.428ZM370.65 365.006C370.949 365.18 371.49 365.148 371.854 364.937L380.471 359.962C380.838 359.75 380.891 359.438 380.593 359.266L372.991 354.877C372.69 354.704 372.151 354.736 371.785 354.946L363.167 359.922C362.802 360.133 362.747 360.445 363.049 360.618L370.65 365.006ZM345.461 379.548C345.761 379.721 346.301 379.692 346.666 379.48L355.283 374.505C355.65 374.294 355.703 373.981 355.403 373.808L347.802 369.421C347.502 369.246 346.962 369.277 346.597 369.489L337.979 374.464C337.613 374.676 337.559 374.988 337.859 375.161L345.461 379.548ZM408.294 340.052C408.594 340.225 409.134 340.194 409.499 339.982L418.117 335.008C418.483 334.797 418.537 334.485 418.237 334.312L416.214 333.142C415.914 332.969 415.374 333.001 415.007 333.213L406.39 338.188C406.026 338.398 405.971 338.71 406.271 338.884L408.294 340.052ZM338.702 440.706L347.321 435.73C347.685 435.52 347.739 435.208 347.439 435.034L339.838 430.646C339.538 430.473 338.998 430.504 338.633 430.716L330.015 435.69C329.649 435.901 329.595 436.213 329.895 436.386L337.495 440.776C337.797 440.948 338.335 440.917 338.702 440.706ZM313.514 455.248L322.131 450.273C322.497 450.062 322.551 449.75 322.251 449.577L314.65 445.188C314.35 445.016 313.81 445.046 313.443 445.258L304.827 450.233C304.461 450.444 304.407 450.756 304.707 450.929L312.309 455.318C312.609 455.49 313.149 455.46 313.514 455.248ZM326.107 447.977L334.725 443.002C335.091 442.79 335.146 442.478 334.845 442.305L327.243 437.917C326.945 437.744 326.405 437.776 326.038 437.986L317.421 442.962C317.055 443.173 317.001 443.484 317.301 443.657L324.902 448.046C325.202 448.22 325.743 448.188 326.107 447.977ZM275.731 477.061L284.349 472.086C284.715 471.876 284.769 471.564 284.467 471.39L276.867 467.002C276.567 466.829 276.027 466.86 275.661 467.072L267.045 472.046C266.678 472.257 266.625 472.569 266.925 472.742L274.525 477.132C274.826 477.304 275.365 477.273 275.731 477.061ZM300.919 462.518L309.537 457.545C309.903 457.333 309.957 457.021 309.657 456.849L302.055 452.46C301.755 452.286 301.217 452.317 300.85 452.529L292.233 457.504C291.867 457.714 291.813 458.028 292.113 458.201L299.714 462.589C300.014 462.762 300.554 462.732 300.919 462.518ZM288.326 469.79L296.943 464.816C297.309 464.604 297.362 464.293 297.062 464.12L289.462 459.732C289.162 459.557 288.622 459.589 288.255 459.8L279.638 464.776C279.273 464.986 279.219 465.298 279.518 465.472L287.121 469.86C287.419 470.033 287.959 470.002 288.326 469.79ZM407.097 400.592C407.395 400.765 407.937 400.734 408.302 400.522L416.919 395.546C417.285 395.336 417.338 395.024 417.039 394.852L409.438 390.464C409.138 390.289 408.598 390.321 408.231 390.532L399.614 395.506C399.249 395.718 399.195 396.03 399.494 396.204L407.097 400.592ZM351.297 433.434L359.914 428.46C360.279 428.248 360.333 427.937 360.034 427.764L352.433 423.374C352.133 423.201 351.593 423.233 351.226 423.444L342.609 428.42C342.243 428.63 342.19 428.942 342.49 429.114L350.091 433.504C350.39 433.677 350.93 433.646 351.297 433.434ZM424.187 377.548L432.805 372.573C433.17 372.361 433.225 372.049 432.925 371.877L425.325 367.488C425.023 367.314 424.483 367.346 424.118 367.557L415.501 372.532C415.134 372.744 415.081 373.054 415.381 373.228L422.982 377.617C423.281 377.79 423.822 377.758 424.187 377.548ZM434.937 384.518C435.235 384.692 435.775 384.66 436.142 384.449L444.758 379.474C445.125 379.262 445.178 378.952 444.879 378.777L437.277 374.389C436.978 374.216 436.438 374.248 436.071 374.458L427.454 379.434C427.089 379.645 427.035 379.957 427.334 380.13L434.937 384.518ZM363.89 426.162L389.079 411.621C389.445 411.409 389.498 411.097 389.199 410.925L381.598 406.536C381.298 406.364 380.759 406.393 380.391 406.605L355.205 421.148C354.837 421.358 354.783 421.67 355.085 421.845L362.685 426.232C362.986 426.405 363.525 426.376 363.89 426.162ZM396.989 379.448L405.605 374.473C405.971 374.262 406.025 373.949 405.725 373.776L398.123 369.388C397.825 369.214 397.283 369.245 396.918 369.457L388.301 374.433C387.934 374.644 387.882 374.956 388.181 375.129L395.781 379.517C396.082 379.69 396.621 379.658 396.989 379.448ZM448.735 377.178L457.353 372.204C457.718 371.992 457.773 371.68 457.473 371.506L449.871 367.118C449.571 366.945 449.033 366.976 448.665 367.188L440.049 372.162C439.683 372.373 439.629 372.685 439.929 372.858L447.53 377.246C447.829 377.42 448.37 377.389 448.735 377.178ZM421.391 397.364C421.093 397.19 420.551 397.222 420.186 397.434L411.569 402.409C411.203 402.62 411.15 402.932 411.449 403.105L419.05 407.493C419.35 407.666 419.89 407.634 420.257 407.424L428.873 402.449C429.239 402.238 429.291 401.926 428.993 401.753L421.391 397.364ZM376.318 423.388C376.018 423.214 375.479 423.245 375.111 423.457L364.506 429.58C364.141 429.792 364.087 430.104 364.386 430.276L371.989 434.665C372.287 434.838 372.827 434.806 373.194 434.596L383.799 428.473C384.165 428.261 384.218 427.949 383.919 427.776L376.318 423.388ZM243.085 500.31C242.785 500.137 242.245 500.168 241.879 500.38L231.273 506.502C230.907 506.713 230.854 507.025 231.154 507.198L238.754 511.588C239.054 511.761 239.594 511.729 239.961 511.518L250.566 505.394C250.933 505.184 250.986 504.872 250.686 504.698L243.085 500.31ZM347.153 440.226C346.853 440.053 346.313 440.085 345.946 440.296L335.341 446.418C334.975 446.63 334.921 446.942 335.221 447.116L342.823 451.504C343.121 451.677 343.661 451.646 344.029 451.434L354.634 445.31C354.999 445.1 355.053 444.789 354.753 444.616L347.153 440.226ZM257.667 491.89C257.367 491.717 256.827 491.749 256.462 491.96L245.855 498.082C245.49 498.294 245.437 498.606 245.737 498.78L253.337 503.168C253.637 503.341 254.177 503.31 254.543 503.098L265.15 496.974C265.515 496.764 265.569 496.453 265.269 496.28L257.667 491.89ZM332.57 448.646C332.27 448.472 331.73 448.504 331.365 448.714L260.439 489.664C260.074 489.876 260.019 490.186 260.319 490.36L267.921 494.748C268.219 494.921 268.759 494.89 269.126 494.68L340.05 453.732C340.418 453.518 340.471 453.208 340.17 453.034L332.57 448.646ZM393.551 413.437C393.253 413.265 392.713 413.296 392.346 413.506L379.09 421.161C378.723 421.372 378.669 421.684 378.969 421.857L386.57 426.245C386.87 426.418 387.41 426.388 387.775 426.177L401.034 418.522C401.399 418.31 401.453 418 401.154 417.826L393.551 413.437ZM361.735 431.808C361.437 431.633 360.895 431.665 360.53 431.877L349.925 438C349.557 438.21 349.503 438.522 349.805 438.696L357.405 443.084C357.706 443.257 358.245 443.226 358.61 443.016L369.217 436.892C369.582 436.681 369.637 436.368 369.335 436.196L361.735 431.808ZM494.615 363.866L475.059 352.576C474.761 352.402 474.219 352.433 473.854 352.645L465.237 357.62C464.871 357.832 464.818 358.144 465.117 358.316L484.673 369.606C484.973 369.78 485.511 369.748 485.878 369.538L494.495 364.562C494.862 364.352 494.915 364.04 494.615 363.866ZM474.421 366.749C474.119 366.574 473.581 366.606 473.215 366.817L464.597 371.793C464.231 372.004 464.177 372.317 464.478 372.489L472.078 376.877C472.379 377.05 472.918 377.02 473.283 376.808L481.901 371.833C482.267 371.621 482.321 371.31 482.021 371.137L474.421 366.749ZM408.798 404.636C408.497 404.462 407.958 404.493 407.593 404.705L398.975 409.68C398.607 409.892 398.554 410.204 398.855 410.377L406.455 414.765C406.757 414.938 407.295 414.908 407.661 414.696L416.278 409.72C416.645 409.509 416.699 409.197 416.398 409.025L408.798 404.636ZM263.137 484.333L271.754 479.358C272.121 479.146 272.174 478.834 271.874 478.661L264.273 474.273C263.973 474.1 263.434 474.13 263.067 474.342L254.45 479.318C254.085 479.529 254.031 479.841 254.33 480.014L261.931 484.402C262.231 484.576 262.771 484.545 263.137 484.333ZM433.986 390.093C433.686 389.92 433.147 389.95 432.779 390.162L424.162 395.137C423.797 395.349 423.743 395.66 424.043 395.834L431.645 400.222C431.943 400.396 432.485 400.365 432.85 400.153L441.467 395.178C441.833 394.966 441.886 394.654 441.587 394.481L433.986 390.093ZM461.826 374.02C461.526 373.846 460.986 373.878 460.619 374.089L439.409 386.336C439.043 386.546 438.99 386.858 439.289 387.032L446.89 391.42C447.19 391.593 447.73 391.562 448.097 391.35L469.307 379.104C469.673 378.893 469.726 378.581 469.427 378.408L461.826 374.02ZM205.775 460.196C206.075 460.369 206.615 460.338 206.981 460.128L215.598 455.152C215.965 454.941 216.018 454.629 215.718 454.456L208.117 450.068C207.817 449.894 207.277 449.925 206.911 450.137L198.294 455.112C197.929 455.324 197.875 455.634 198.174 455.808L205.775 460.196ZM218.37 452.925C218.67 453.098 219.21 453.066 219.575 452.856L228.193 447.881C228.559 447.669 228.611 447.357 228.313 447.185L220.711 442.796C220.411 442.622 219.871 442.654 219.506 442.865L210.889 447.84C210.522 448.052 210.469 448.362 210.769 448.536L218.37 452.925ZM228.502 508.729C228.202 508.557 227.662 508.586 227.297 508.798L214.039 516.453C213.673 516.664 213.619 516.976 213.919 517.149L221.521 521.537C221.821 521.71 222.359 521.68 222.726 521.468L235.983 513.814C236.35 513.602 236.403 513.292 236.103 513.117L228.502 508.729ZM236.443 442.49C236.743 442.662 237.283 442.632 237.65 442.42L246.266 437.445C246.633 437.234 246.686 436.922 246.386 436.749L238.786 432.361C238.486 432.188 237.946 432.218 237.579 432.43L228.962 437.405C228.595 437.617 228.543 437.929 228.843 438.102L236.443 442.49ZM261.633 427.946C261.933 428.121 262.471 428.09 262.838 427.878L271.455 422.904C271.821 422.692 271.875 422.38 271.575 422.206L263.974 417.818C263.674 417.646 263.134 417.676 262.769 417.888L254.151 422.862C253.785 423.074 253.731 423.385 254.03 423.56L261.633 427.946ZM193.181 467.466C193.481 467.64 194.022 467.61 194.386 467.398L203.003 462.424C203.37 462.212 203.425 461.9 203.125 461.726L195.522 457.338C195.223 457.165 194.683 457.196 194.317 457.408L185.699 462.382C185.334 462.594 185.281 462.906 185.579 463.078L193.181 467.466ZM249.038 435.218C249.338 435.392 249.878 435.361 250.243 435.15L258.861 430.174C259.227 429.964 259.281 429.652 258.979 429.478L251.379 425.09C251.079 424.916 250.539 424.948 250.174 425.158L241.557 430.133C241.19 430.345 241.137 430.657 241.437 430.83L249.038 435.218ZM274.226 420.676C274.525 420.85 275.066 420.818 275.431 420.608L284.049 415.632C284.414 415.421 284.469 415.109 284.169 414.936L276.569 410.548C276.269 410.374 275.727 410.406 275.361 410.617L266.745 415.592C266.379 415.804 266.325 416.114 266.625 416.288L274.226 420.676ZM221.498 507.746L213.895 503.358C213.597 503.185 213.057 503.216 212.691 503.428L202.085 509.55C201.718 509.762 201.665 510.074 201.966 510.246L209.566 514.636C209.866 514.809 210.406 514.777 210.771 514.566L221.378 508.442C221.743 508.232 221.797 507.92 221.498 507.746ZM215.509 497.401L207.909 493.012C207.609 492.84 207.069 492.87 206.702 493.082L190.131 502.649C189.765 502.861 189.711 503.172 190.011 503.345L197.611 507.734C197.911 507.908 198.451 507.876 198.818 507.665L215.389 498.098C215.755 497.885 215.809 497.574 215.509 497.401ZM180.587 474.738C180.886 474.912 181.427 474.88 181.793 474.669L190.41 469.693C190.775 469.482 190.83 469.172 190.53 468.998L182.929 464.609C182.63 464.436 182.089 464.468 181.722 464.678L173.106 469.654C172.739 469.865 172.686 470.177 172.986 470.35L180.587 474.738ZM172.457 479.433L164.855 475.045C164.555 474.872 164.017 474.902 163.65 475.113L153.043 481.237C152.678 481.448 152.623 481.761 152.925 481.933L160.525 486.322C160.825 486.494 161.365 486.464 161.73 486.252L172.337 480.129C172.703 479.918 172.757 479.605 172.457 479.433ZM200.241 492.412L192.639 488.024C192.339 487.852 191.799 487.881 191.434 488.094L178.177 495.748C177.81 495.958 177.757 496.27 178.057 496.444L185.658 500.832C185.958 501.005 186.497 500.974 186.863 500.762L200.121 493.109C200.487 492.897 200.541 492.585 200.241 492.412ZM183.647 488.189L176.046 483.801C175.745 483.629 175.206 483.66 174.839 483.87L166.222 488.846C165.857 489.057 165.803 489.368 166.103 489.542L173.703 493.93C174.003 494.104 174.543 494.073 174.91 493.861L183.526 488.886C183.893 488.674 183.946 488.362 183.647 488.189ZM250.543 491.604L259.161 486.629C259.526 486.418 259.579 486.106 259.281 485.933L251.679 481.545C251.379 481.372 250.839 481.402 250.473 481.614L241.855 486.589C241.49 486.8 241.437 487.112 241.737 487.285L249.337 491.674C249.637 491.846 250.177 491.816 250.543 491.604ZM266.998 444.465L258.382 449.441C258.015 449.653 257.962 449.964 258.262 450.137L265.863 454.526C266.162 454.698 266.703 454.668 267.069 454.457L275.686 449.481C276.051 449.27 276.106 448.958 275.806 448.785L268.205 444.397C267.906 444.224 267.365 444.256 266.998 444.465ZM254.406 451.737L245.789 456.713C245.422 456.924 245.367 457.236 245.667 457.408L253.269 461.797C253.569 461.969 254.109 461.94 254.475 461.728L263.091 456.753C263.458 456.541 263.511 456.229 263.213 456.056L255.61 451.668C255.31 451.496 254.771 451.525 254.406 451.737ZM304.781 422.652L296.165 427.628C295.798 427.838 295.745 428.15 296.045 428.324L303.645 432.713C303.945 432.885 304.485 432.854 304.851 432.642L313.469 427.668C313.835 427.456 313.887 427.145 313.587 426.972L305.987 422.582C305.687 422.409 305.147 422.441 304.781 422.652ZM279.593 437.194L270.975 442.17C270.61 442.381 270.555 442.693 270.855 442.866L278.457 447.254C278.757 447.428 279.298 447.396 279.662 447.185L288.279 442.21C288.646 441.998 288.701 441.686 288.401 441.514L280.799 437.125C280.499 436.952 279.959 436.984 279.593 437.194ZM292.187 429.924L283.57 434.898C283.203 435.11 283.15 435.421 283.45 435.596L291.051 439.984C291.351 440.157 291.89 440.125 292.257 439.913L300.874 434.938C301.241 434.728 301.294 434.416 300.994 434.242L293.393 429.854C293.093 429.681 292.554 429.712 292.187 429.924ZM241.811 459.008L233.194 463.984C232.827 464.194 232.773 464.506 233.074 464.68L240.675 469.069C240.975 469.241 241.515 469.21 241.881 468.998L250.498 464.024C250.863 463.813 250.917 463.501 250.617 463.328L243.017 458.938C242.717 458.766 242.177 458.797 241.811 459.008ZM229.215 466.28L220.599 471.254C220.234 471.465 220.181 471.777 220.479 471.952L228.081 476.34C228.381 476.512 228.921 476.482 229.286 476.269L237.903 471.296C238.27 471.084 238.323 470.772 238.023 470.598L230.422 466.21C230.122 466.038 229.582 466.069 229.215 466.28ZM269.743 466.716L278.359 461.741C278.726 461.529 278.779 461.218 278.481 461.045L270.879 456.656C270.579 456.484 270.039 456.514 269.673 456.726L261.057 461.701C260.69 461.912 260.637 462.224 260.937 462.397L268.537 466.785C268.837 466.958 269.377 466.928 269.743 466.716ZM257.149 473.988L265.766 469.013C266.133 468.801 266.186 468.49 265.886 468.317L258.285 463.928C257.986 463.754 257.445 463.785 257.078 463.997L248.462 468.972C248.095 469.184 248.042 469.494 248.342 469.668L255.943 474.056C256.243 474.23 256.783 474.198 257.149 473.988ZM244.554 481.258L253.171 476.284C253.538 476.073 253.591 475.761 253.293 475.586L245.69 471.2C245.39 471.026 244.851 471.056 244.485 471.269L235.867 476.242C235.502 476.454 235.447 476.766 235.747 476.938L243.35 481.326C243.649 481.5 244.189 481.47 244.554 481.258ZM216.622 473.55L208.005 478.526C207.639 478.737 207.585 479.049 207.885 479.222L215.486 483.61C215.786 483.784 216.326 483.753 216.691 483.541L225.309 478.566C225.675 478.354 225.729 478.044 225.429 477.87L217.827 473.481C217.529 473.308 216.989 473.34 216.622 473.55ZM230.754 488.6C231.054 488.772 231.595 488.741 231.961 488.529L240.578 483.554C240.943 483.344 240.997 483.032 240.697 482.858L233.097 478.47C232.797 478.297 232.257 478.328 231.891 478.538L223.274 483.514C222.907 483.725 222.854 484.037 223.154 484.21L230.754 488.6ZM329.97 408.109L321.353 413.085C320.986 413.297 320.934 413.608 321.234 413.781L328.834 418.169C329.134 418.342 329.674 418.312 330.039 418.101L338.658 413.125C339.023 412.913 339.077 412.602 338.775 412.429L331.175 408.041C330.877 407.868 330.335 407.898 329.97 408.109ZM435.577 370.345C435.875 370.518 436.415 370.488 436.782 370.276L445.399 365.301C445.765 365.089 445.819 364.778 445.519 364.605L437.918 360.216C437.618 360.044 437.078 360.074 436.713 360.285L428.095 365.261C427.729 365.472 427.674 365.784 427.975 365.957L435.577 370.345ZM317.377 415.38L308.758 420.356C308.393 420.568 308.339 420.88 308.639 421.052L316.241 425.44C316.539 425.613 317.079 425.582 317.445 425.372L326.063 420.397C326.429 420.185 326.482 419.873 326.182 419.7L318.581 415.312C318.282 415.138 317.742 415.169 317.377 415.38ZM412.163 360.656L403.547 365.63C403.181 365.841 403.126 366.154 403.426 366.326L411.029 370.714C411.327 370.888 411.867 370.857 412.234 370.645L420.85 365.67C421.217 365.458 421.271 365.148 420.97 364.974L413.37 360.585C413.07 360.413 412.53 360.444 412.163 360.656ZM441.21 344.513L460.765 355.804C461.063 355.976 461.605 355.945 461.97 355.734L470.587 350.76C470.953 350.548 471.006 350.236 470.707 350.062L451.153 338.772C450.851 338.6 450.313 338.63 449.945 338.842L441.329 343.817C440.963 344.028 440.909 344.34 441.21 344.513ZM438.557 346.044C438.258 345.87 437.717 345.901 437.351 346.113L428.734 351.088C428.37 351.298 428.315 351.61 428.614 351.784L436.217 356.172C436.515 356.345 437.055 356.314 437.421 356.104L446.039 351.129C446.405 350.917 446.459 350.605 446.159 350.433L438.557 346.044ZM424.827 363.376L433.445 358.4C433.811 358.188 433.865 357.877 433.563 357.704L425.963 353.316C425.663 353.141 425.123 353.173 424.758 353.384L416.141 358.358C415.774 358.57 415.719 358.882 416.021 359.056L423.622 363.444C423.921 363.617 424.462 363.585 424.827 363.376ZM449.377 363.005L457.993 358.03C458.359 357.818 458.413 357.506 458.113 357.333L450.511 352.945C450.211 352.772 449.671 352.802 449.306 353.014L440.689 357.989C440.323 358.201 440.269 358.513 440.569 358.685L448.169 363.074C448.47 363.246 449.009 363.216 449.377 363.005ZM294.931 452.173L303.549 447.198C303.914 446.986 303.967 446.676 303.667 446.502L296.067 442.113C295.767 441.94 295.227 441.972 294.862 442.182L286.243 447.158C285.878 447.369 285.825 447.681 286.125 447.853L293.726 452.242C294.025 452.416 294.566 452.385 294.931 452.173ZM426.603 339.142C426.303 338.969 425.763 339 425.397 339.21L416.781 344.185C416.415 344.398 416.361 344.709 416.661 344.882L424.262 349.27C424.561 349.444 425.102 349.413 425.467 349.202L434.085 344.226C434.45 344.016 434.505 343.704 434.205 343.53L426.603 339.142ZM342.634 410.829L351.251 405.854C351.617 405.642 351.67 405.33 351.371 405.157L343.771 400.769C343.47 400.596 342.931 400.628 342.565 400.838L333.947 405.813C333.581 406.025 333.527 406.337 333.827 406.51L341.429 410.898C341.727 411.072 342.269 411.04 342.634 410.829ZM412.803 346.482L404.186 351.457C403.821 351.668 403.767 351.98 404.066 352.154L411.667 356.542C411.967 356.714 412.507 356.685 412.874 356.473L421.491 351.498C421.857 351.286 421.91 350.974 421.61 350.801L414.01 346.413C413.71 346.241 413.17 346.27 412.803 346.482ZM384.963 362.556L376.346 367.53C375.981 367.741 375.927 368.053 376.226 368.226L383.827 372.616C384.127 372.789 384.667 372.757 385.033 372.546L393.651 367.572C394.017 367.36 394.07 367.048 393.771 366.874L386.169 362.486C385.87 362.313 385.329 362.345 384.963 362.556ZM400.21 353.753L391.593 358.729C391.226 358.94 391.173 359.252 391.471 359.425L399.074 363.813C399.374 363.986 399.914 363.956 400.279 363.744L408.897 358.769C409.263 358.557 409.317 358.246 409.017 358.073L401.415 353.685C401.115 353.51 400.575 353.542 400.21 353.753ZM282.337 459.445L290.954 454.469C291.321 454.258 291.374 453.946 291.074 453.773L283.473 449.385C283.173 449.212 282.633 449.242 282.267 449.454L273.65 454.429C273.283 454.641 273.231 454.952 273.53 455.126L281.131 459.514C281.431 459.688 281.971 459.657 282.337 459.445ZM225.217 454.785L216.599 459.761C216.234 459.972 216.179 460.284 216.479 460.457L224.081 464.846C224.381 465.018 224.921 464.988 225.286 464.776L233.905 459.801C234.27 459.59 234.323 459.277 234.023 459.104L226.422 454.716C226.122 454.544 225.583 454.574 225.217 454.785ZM237.811 447.514L229.194 452.49C228.827 452.701 228.774 453.013 229.074 453.185L236.675 457.574C236.974 457.748 237.515 457.716 237.881 457.505L246.498 452.53C246.863 452.318 246.918 452.006 246.618 451.833L239.017 447.445C238.717 447.272 238.177 447.304 237.811 447.514ZM250.405 440.242L241.789 445.218C241.422 445.429 241.367 445.741 241.667 445.914L249.27 450.302C249.569 450.476 250.109 450.445 250.475 450.233L259.091 445.258C259.458 445.048 259.513 444.736 259.213 444.562L251.61 440.174C251.311 440.001 250.771 440.032 250.405 440.242ZM275.593 425.7L266.975 430.676C266.61 430.886 266.557 431.198 266.857 431.372L274.458 435.761C274.757 435.933 275.297 435.904 275.663 435.69L284.279 430.716C284.646 430.505 284.699 430.193 284.401 430.02L276.799 425.63C276.499 425.458 275.959 425.489 275.593 425.7ZM212.622 462.057L204.005 467.032C203.639 467.242 203.586 467.556 203.886 467.728L211.487 472.117C211.786 472.29 212.326 472.26 212.693 472.046L221.309 467.073C221.675 466.861 221.729 466.549 221.429 466.377L213.829 461.988C213.529 461.814 212.989 461.845 212.622 462.057ZM262.999 432.972L254.382 437.946C254.017 438.158 253.962 438.469 254.262 438.642L261.862 443.032C262.163 443.205 262.702 443.174 263.069 442.962L271.686 437.988C272.051 437.776 272.105 437.464 271.806 437.292L264.205 432.902C263.905 432.729 263.365 432.761 262.999 432.972ZM200.027 469.328L191.411 474.302C191.045 474.514 190.991 474.826 191.291 475L198.893 479.388C199.193 479.561 199.731 479.53 200.098 479.318L208.715 474.344C209.081 474.132 209.135 473.821 208.835 473.648L201.234 469.26C200.934 469.085 200.394 469.117 200.027 469.328ZM224.15 506.216C224.449 506.389 224.989 506.358 225.355 506.148L233.971 501.172C234.338 500.961 234.391 500.649 234.091 500.476L226.49 496.088C226.19 495.914 225.651 495.945 225.285 496.157L216.667 501.132C216.302 501.344 216.247 501.654 216.549 501.828L224.15 506.216ZM237.949 498.876L246.566 493.901C246.933 493.689 246.986 493.378 246.686 493.205L239.085 488.816C238.785 488.642 238.245 488.674 237.879 488.885L229.262 493.86C228.897 494.072 228.842 494.384 229.142 494.557L236.743 498.945C237.043 499.118 237.583 499.088 237.949 498.876ZM202.891 490.882C203.191 491.056 203.731 491.024 204.098 490.813L212.715 485.837C213.081 485.626 213.134 485.314 212.834 485.142L205.234 480.753C204.934 480.58 204.394 480.612 204.027 480.822L195.41 485.797C195.045 486.009 194.991 486.321 195.291 486.493L202.891 490.882ZM187.434 476.6L178.817 481.574C178.451 481.785 178.397 482.098 178.697 482.27L186.298 486.658C186.598 486.832 187.138 486.801 187.503 486.589L196.121 481.614C196.487 481.404 196.541 481.092 196.241 480.918L188.639 476.53C188.339 476.357 187.801 476.388 187.434 476.6ZM218.161 495.87C218.461 496.044 219.001 496.013 219.366 495.801L227.983 490.825C228.349 490.614 228.403 490.302 228.103 490.129L220.502 485.741C220.202 485.569 219.662 485.6 219.297 485.81L210.679 490.785C210.313 490.997 210.261 491.308 210.559 491.482L218.161 495.87ZM288.187 418.429L279.57 423.404C279.203 423.616 279.15 423.928 279.45 424.101L287.051 428.489C287.351 428.662 287.891 428.63 288.257 428.42L296.874 423.445C297.241 423.234 297.294 422.921 296.994 422.749L289.393 418.36C289.094 418.186 288.553 418.218 288.187 418.429ZM300.782 411.157L292.165 416.133C291.799 416.345 291.745 416.657 292.045 416.829L299.646 421.218C299.946 421.39 300.486 421.36 300.851 421.149L309.469 416.174C309.834 415.962 309.889 415.65 309.589 415.477L301.987 411.089C301.687 410.916 301.149 410.946 300.782 411.157ZM357.902 415.817L377.125 404.718C377.491 404.506 377.545 404.196 377.245 404.022L357.69 392.733C357.389 392.56 356.85 392.59 356.485 392.801L346.542 398.542C346.175 398.754 346.122 399.065 346.421 399.238L357.29 405.513C357.59 405.686 357.535 405.998 357.169 406.209L349.217 410.802C348.849 411.013 348.795 411.325 349.097 411.497L356.697 415.886C356.995 416.06 357.537 416.028 357.902 415.817ZM371.801 393.99L380.417 389.016C380.782 388.804 380.835 388.492 380.537 388.32L372.935 383.93C372.635 383.757 372.095 383.789 371.73 384L363.113 388.974C362.747 389.186 362.693 389.498 362.993 389.67L370.594 394.06C370.893 394.233 371.434 394.201 371.801 393.99ZM307.526 444.902L316.143 439.928C316.509 439.716 316.562 439.404 316.262 439.23L308.661 434.842C308.361 434.67 307.822 434.7 307.455 434.912L298.839 439.886C298.473 440.098 298.418 440.409 298.718 440.582L306.321 444.97C306.619 445.144 307.159 445.114 307.526 444.902ZM320.119 437.632L328.737 432.656C329.103 432.445 329.157 432.133 328.857 431.96L321.255 427.572C320.955 427.398 320.415 427.429 320.05 427.64L311.433 432.616C311.066 432.826 311.014 433.138 311.313 433.312L318.914 437.7C319.214 437.873 319.754 437.842 320.119 437.632ZM332.715 430.36L341.331 425.385C341.698 425.173 341.751 424.862 341.45 424.688L333.85 420.3C333.55 420.128 333.01 420.157 332.645 420.369L324.027 425.344C323.661 425.556 323.607 425.868 323.907 426.04L331.509 430.429C331.809 430.602 332.349 430.572 332.715 430.36ZM345.309 423.089L353.926 418.113C354.29 417.902 354.345 417.59 354.046 417.417L346.443 413.029C346.145 412.856 345.605 412.886 345.238 413.098L336.621 418.073C336.255 418.285 336.202 418.596 336.501 418.769L344.103 423.158C344.402 423.332 344.942 423.3 345.309 423.089ZM313.377 403.886L304.759 408.861C304.393 409.073 304.339 409.385 304.638 409.558L312.241 413.946C312.541 414.12 313.079 414.089 313.446 413.877L322.063 408.902C322.43 408.69 322.483 408.38 322.183 408.206L314.582 403.818C314.282 403.645 313.742 403.674 313.377 403.886ZM325.97 396.616L317.354 401.59C316.987 401.802 316.934 402.113 317.233 402.286L324.834 406.676C325.134 406.849 325.674 406.817 326.041 406.606L334.658 401.63C335.023 401.42 335.077 401.108 334.775 400.936L327.177 396.546C326.877 396.373 326.335 396.405 325.97 396.616ZM359.775 377.098L351.158 382.073C350.793 382.284 350.738 382.597 351.039 382.769L358.641 387.158C358.938 387.33 359.479 387.3 359.845 387.089L368.462 382.113C368.827 381.902 368.883 381.59 368.582 381.417L360.981 377.029C360.682 376.856 360.141 376.886 359.775 377.098ZM344.53 385.901L329.947 394.32C329.581 394.53 329.527 394.844 329.827 395.016L337.429 399.404C337.729 399.577 338.269 399.546 338.634 399.334L353.217 390.916C353.583 390.705 353.637 390.392 353.337 390.22L345.735 385.83C345.437 385.658 344.895 385.689 344.53 385.901ZM372.37 369.826L363.753 374.801C363.386 375.013 363.333 375.325 363.633 375.498L371.234 379.886C371.534 380.06 372.074 380.029 372.438 379.818L381.055 374.842C381.423 374.63 381.477 374.318 381.177 374.146L373.575 369.757C373.275 369.584 372.735 369.616 372.37 369.826ZM384.393 386.718L393.01 381.744C393.377 381.533 393.43 381.221 393.131 381.048L385.53 376.658C385.229 376.486 384.69 376.518 384.323 376.729L375.706 381.704C375.339 381.914 375.286 382.226 375.587 382.4L383.187 386.789C383.489 386.961 384.027 386.93 384.393 386.718Z" fill="#375A64"/>
<path d="M330.859 475.278L332.627 476.297L379.555 503.387L463.014 455.201L464.751 454.211L416.055 426.102L330.859 475.278Z" fill="#1A2E35"/>
<path d="M462.236 455.65L416.056 429.008L333.404 476.745L379.556 503.386L462.236 455.65Z" fill="#2B454E"/>
</g>
<mask id="mask7_102_3" style="mask-type:luminance" maskUnits="userSpaceOnUse" x="0" y="0" width="667" height="667">
<path d="M0 6.10352e-05H666.667V666.667H0V6.10352e-05Z" fill="white"/>
</mask>
<g mask="url(#mask7_102_3)">
<path d="M514.957 84.5644C514.957 81.0511 513.73 78.5764 511.746 77.4084C509.737 76.2284 498.106 69.5191 496.085 68.3684C494.081 67.2271 491.321 67.4005 488.274 69.1604L270.6 194.835L270.601 266.875L286.198 275.879L503.873 150.204C509.994 146.671 514.957 138.075 514.957 131.007V84.5644Z" fill="#3CA73D"/>
<mask id="mask8_102_3" style="mask-type:luminance" maskUnits="userSpaceOnUse" x="270" y="67" width="245" height="209">
<path d="M270.6 67.6467H514.957V275.879H270.6V67.6467Z" fill="white"/>
</mask>
<g mask="url(#mask8_102_3)">
<g opacity="0.149994">
<path d="M514.957 84.5644C514.957 81.0511 513.73 78.5764 511.746 77.4084C509.737 76.2284 498.106 69.5191 496.085 68.3684C494.081 67.2271 491.321 67.4005 488.274 69.1604L270.6 194.835L270.601 266.875L286.198 275.879L503.873 150.204C509.994 146.671 514.957 138.075 514.957 131.007V84.5644Z" fill="black"/>
</g>
</g>
<path d="M503.872 78.1647C509.994 74.63 514.956 77.4954 514.956 84.5647V131.006C514.956 138.075 509.995 146.67 503.872 150.205L286.199 275.879L286.198 203.838L503.872 78.1647Z" fill="#3CA73D"/>
<path d="M501.638 144.273C505.747 141.899 509.11 136.077 509.11 131.33V88.4275C509.11 85.0461 506.714 83.6621 503.785 85.3541L290.581 208.535V266.215L501.638 144.273Z" fill="#FAFAFA"/>
<path d="M327.74 230.634C327.74 230.965 327.661 231.294 327.505 231.622C327.349 231.954 327.164 232.181 326.949 232.305L323.268 234.431C323.052 234.554 322.868 234.542 322.712 234.39C322.556 234.242 322.478 234.003 322.478 233.671V222.285C322.478 220.995 322.273 220.078 321.865 219.534C321.454 218.993 320.813 218.971 319.934 219.479C319.057 219.985 318.42 220.745 318.02 221.753C317.621 222.766 317.421 223.915 317.421 225.205V236.591C317.421 236.922 317.342 237.251 317.186 237.581C317.032 237.911 316.846 238.138 316.632 238.262L312.948 240.387C312.733 240.513 312.548 240.499 312.393 240.349C312.236 240.199 312.158 239.961 312.158 239.63V210.106C312.158 209.775 312.236 209.446 312.393 209.117C312.548 208.786 312.733 208.559 312.948 208.435L316.632 206.309C316.846 206.185 317.032 206.199 317.186 206.349C317.342 206.498 317.421 206.738 317.421 207.067V216.654C317.752 215.833 318.268 214.927 318.97 213.938C319.672 212.946 320.48 212.189 321.396 211.659C322.33 211.119 323.189 210.826 323.969 210.781C324.748 210.737 325.416 210.974 325.972 211.494C326.526 212.013 326.96 212.829 327.27 213.938C327.584 215.047 327.74 216.489 327.74 218.258V230.634Z" fill="#375A64"/>
<path d="M337.853 216.876C337.853 217.565 337.95 218.042 338.145 218.304C338.339 218.565 338.661 218.568 339.11 218.309L341.447 216.958C341.662 216.837 341.847 216.849 342.003 216.997C342.158 217.149 342.237 217.388 342.237 217.718V222.264C342.237 222.594 342.158 222.924 342.003 223.253C341.847 223.584 341.662 223.81 341.447 223.934L338.671 225.537C337.755 226.066 336.922 226.344 336.171 226.373C335.422 226.401 334.783 226.185 334.257 225.722C333.731 225.262 333.322 224.568 333.03 223.642C332.738 222.716 332.591 221.562 332.591 220.182V212.62L330.429 213.87C330.214 213.993 330.029 213.982 329.873 213.83C329.717 213.681 329.639 213.44 329.639 213.109V208.565C329.639 208.234 329.717 207.905 329.873 207.576C330.029 207.246 330.214 207.018 330.429 206.893L332.591 205.646V198.31C332.591 197.98 332.669 197.65 332.825 197.32C332.981 196.99 333.165 196.764 333.381 196.638L337.063 194.513C337.277 194.388 337.462 194.404 337.619 194.552C337.774 194.702 337.853 194.942 337.853 195.27V202.606L341.157 200.701C341.37 200.577 341.554 200.592 341.713 200.74C341.867 200.89 341.945 201.13 341.945 201.46V206.005C341.945 206.337 341.867 206.666 341.713 206.994C341.554 207.326 341.37 207.552 341.157 207.676L337.853 209.584V216.876Z" fill="#375A64"/>
<path d="M351.708 208.876C351.708 209.565 351.804 210.042 352 210.305C352.195 210.566 352.516 210.568 352.966 210.31L355.303 208.96C355.516 208.837 355.702 208.849 355.859 208.997C356.014 209.149 356.092 209.389 356.092 209.718V214.265C356.092 214.596 356.014 214.925 355.859 215.253C355.702 215.585 355.516 215.812 355.303 215.934L352.527 217.538C351.611 218.068 350.778 218.345 350.027 218.373C349.278 218.401 348.639 218.185 348.112 217.724C347.587 217.264 347.178 216.569 346.886 215.644C346.594 214.716 346.447 213.562 346.447 212.182V204.621L344.284 205.87C344.07 205.994 343.884 205.982 343.728 205.83C343.572 205.682 343.495 205.442 343.495 205.11V200.565C343.495 200.236 343.572 199.906 343.728 199.576C343.884 199.248 344.07 199.018 344.284 198.894L346.447 197.646V190.31C346.447 189.981 346.524 189.652 346.68 189.32C346.836 188.992 347.02 188.764 347.236 188.64L350.919 186.513C351.132 186.389 351.318 186.404 351.475 186.552C351.63 186.704 351.708 186.942 351.708 187.272V194.609L355.012 192.701C355.226 192.578 355.41 192.592 355.568 192.741C355.723 192.89 355.8 193.13 355.8 193.461V198.005C355.8 198.337 355.723 198.666 355.568 198.996C355.41 199.328 355.226 199.552 355.012 199.677L351.708 201.584V208.876Z" fill="#375A64"/>
<path d="M369.072 197.544C369.129 196.672 369.129 195.831 369.072 195.026C369.013 194.01 368.789 193.224 368.398 192.667C368.009 192.114 367.357 192.099 366.441 192.627C366.012 192.876 365.642 193.195 365.33 193.584C365.018 193.974 364.76 194.403 364.556 194.864C364.35 195.328 364.19 195.802 364.073 196.292C363.956 196.779 363.877 197.258 363.84 197.731C363.8 198.203 363.781 198.739 363.781 199.34C363.781 199.94 363.8 200.454 363.84 200.88C363.877 201.308 363.956 201.698 364.073 202.052C364.19 202.404 364.35 202.692 364.556 202.92C364.76 203.148 365.018 203.276 365.33 203.304C365.642 203.336 366.012 203.227 366.441 202.979C367.357 202.451 368.009 201.683 368.398 200.68C368.789 199.675 369.013 198.628 369.072 197.544ZM367.756 209.195C367.192 209.522 366.694 209.719 366.266 209.787C365.836 209.854 365.466 209.843 365.154 209.754C364.842 209.662 364.58 209.522 364.365 209.331C364.152 209.139 363.976 208.948 363.84 208.756V218.343C363.84 218.672 363.761 219.003 363.605 219.332C363.449 219.663 363.265 219.89 363.05 220.014L359.366 222.14C359.153 222.263 358.968 222.25 358.812 222.099C358.656 221.951 358.577 221.711 358.577 221.38V191.856C358.577 191.528 358.656 191.198 358.812 190.867C358.968 190.539 359.153 190.31 359.366 190.187L362.904 188.144C363.117 188.02 363.304 188.035 363.46 188.184C363.614 188.334 363.693 188.574 363.693 188.904V189.939C363.868 189.539 364.058 189.114 364.264 188.667C364.468 188.216 364.72 187.779 365.022 187.35C365.324 186.92 365.696 186.496 366.133 186.078C366.572 185.659 367.113 185.266 367.756 184.894C368.633 184.388 369.461 184.112 370.241 184.066C371.021 184.02 371.704 184.258 372.286 184.776C372.873 185.292 373.344 186.094 373.705 187.175C374.065 188.256 374.265 189.672 374.304 191.418C374.322 191.856 374.333 192.46 374.333 193.224C374.333 193.99 374.322 194.602 374.304 195.064C374.265 196.856 374.065 198.503 373.705 200.002C373.344 201.5 372.873 202.844 372.286 204.036C371.704 205.23 371.021 206.26 370.241 207.13C369.461 208 368.633 208.69 367.756 209.195Z" fill="#375A64"/>
<path d="M382.428 199.06C382.428 199.391 382.35 199.719 382.195 200.048C382.039 200.38 381.854 200.607 381.639 200.729L377.811 202.94C377.595 203.065 377.41 203.052 377.255 202.901C377.099 202.751 377.022 202.512 377.022 202.181V196.285C377.022 195.956 377.099 195.625 377.255 195.295C377.41 194.967 377.595 194.74 377.811 194.615L381.639 192.404C381.854 192.281 382.039 192.295 382.195 192.443C382.35 192.593 382.428 192.833 382.428 193.164V199.06ZM382.428 183.308C382.428 183.639 382.35 183.968 382.195 184.297C382.039 184.628 381.854 184.855 381.639 184.979L377.811 187.189C377.595 187.312 377.41 187.3 377.255 187.148C377.099 187 377.022 186.76 377.022 186.429V180.533C377.022 180.204 377.099 179.876 377.255 179.544C377.41 179.213 377.595 178.987 377.811 178.864L381.639 176.653C381.854 176.529 382.039 176.543 382.195 176.692C382.35 176.843 382.428 177.084 382.428 177.412V183.308Z" fill="#375A64"/>
<path d="M394.59 159.229C394.686 158.844 394.834 158.453 395.027 158.055C395.222 157.657 395.506 157.352 395.877 157.137L399.501 155.044C399.674 154.943 399.826 154.953 399.953 155.076C400.079 155.199 400.143 155.393 400.143 155.664C400.143 155.784 400.123 155.929 400.085 156.104L390.234 198.199C390.155 198.543 390.018 198.923 389.826 199.335C389.63 199.748 389.338 200.065 388.949 200.291L385.382 202.349C385.206 202.451 385.055 202.44 384.929 202.319C384.801 202.199 384.738 202 384.738 201.732C384.738 201.612 384.758 201.465 384.797 201.292L394.59 159.229Z" fill="#375A64"/>
<path d="M404.616 153.44C404.713 153.055 404.86 152.664 405.055 152.265C405.249 151.868 405.532 151.563 405.903 151.348L409.528 149.255C409.701 149.153 409.853 149.164 409.98 149.287C410.107 149.409 410.169 149.604 410.169 149.876C410.169 149.995 410.151 150.14 410.111 150.315L400.261 192.409C400.183 192.753 400.045 193.133 399.852 193.545C399.656 193.959 399.364 194.276 398.976 194.501L395.408 196.56C395.233 196.661 395.083 196.651 394.956 196.529C394.828 196.409 394.765 196.211 394.765 195.943C394.765 195.823 394.784 195.676 394.824 195.503L404.616 153.44Z" fill="#375A64"/>
<path d="M423.937 152.906C424.229 152.738 424.453 152.732 424.609 152.88C424.764 153.029 424.872 153.209 424.931 153.414L427.093 162.381L429.257 150.917C429.315 150.644 429.421 150.341 429.579 150.01C429.735 149.681 429.959 149.43 430.251 149.262L433.875 147.17C434.071 147.057 434.236 147.066 434.372 147.198C434.509 147.329 434.576 147.545 434.576 147.845C434.576 147.965 434.568 148.09 434.548 148.221L429.9 171.742C429.841 172.045 429.74 172.36 429.593 172.682C429.447 173.008 429.228 173.256 428.935 173.425L425.603 175.348C425.311 175.516 425.096 175.521 424.96 175.358C424.824 175.198 424.716 175.004 424.637 174.778L422.563 166.528L420.488 177.176C420.409 177.489 420.301 177.808 420.167 178.126C420.029 178.445 419.815 178.689 419.521 178.858L416.189 180.781C415.899 180.95 415.68 180.957 415.532 180.801C415.387 180.646 415.285 180.449 415.227 180.213L410.577 162.06C410.559 161.95 410.548 161.837 410.548 161.717C410.548 161.418 410.617 161.122 410.753 160.833C410.889 160.545 411.055 160.344 411.249 160.232L414.875 158.138C415.168 157.97 415.391 157.962 415.548 158.112C415.703 158.261 415.809 158.44 415.868 158.646L418.031 167.613L420.195 156.149C420.253 155.876 420.36 155.573 420.517 155.242C420.673 154.913 420.897 154.661 421.188 154.493L423.937 152.906Z" fill="#375A64"/>
<path d="M449.251 138.292C449.545 138.123 449.767 138.115 449.923 138.264C450.079 138.414 450.186 138.594 450.245 138.799L452.407 147.766L454.571 136.3C454.629 136.028 454.737 135.726 454.893 135.396C455.05 135.066 455.274 134.815 455.565 134.646L459.19 132.555C459.385 132.442 459.551 132.451 459.687 132.582C459.823 132.714 459.89 132.93 459.89 133.23C459.89 133.348 459.882 133.474 459.863 133.606L455.215 157.126C455.157 157.43 455.054 157.744 454.907 158.068C454.762 158.394 454.543 158.639 454.25 158.808L450.917 160.732C450.625 160.902 450.411 160.904 450.275 160.742C450.138 160.582 450.031 160.388 449.953 160.164L447.878 151.911L445.802 162.56C445.723 162.875 445.615 163.192 445.481 163.511C445.345 163.831 445.13 164.072 444.837 164.242L441.505 166.167C441.213 166.336 440.994 166.342 440.847 166.184C440.701 166.031 440.599 165.834 440.541 165.599L435.891 147.446C435.874 147.336 435.863 147.222 435.863 147.102C435.863 146.802 435.933 146.508 436.069 146.219C436.203 145.93 436.37 145.73 436.565 145.618L440.19 143.523C440.482 143.354 440.706 143.347 440.862 143.496C441.018 143.646 441.125 143.826 441.183 144.031L443.346 152.998L445.51 141.532C445.569 141.259 445.674 140.958 445.833 140.627C445.987 140.296 446.211 140.047 446.503 139.878L449.251 138.292Z" fill="#375A64"/>
<path d="M474.566 123.677C474.858 123.508 475.082 123.5 475.238 123.649C475.393 123.8 475.501 123.978 475.56 124.184L477.722 133.15L479.886 121.685C479.944 121.413 480.05 121.109 480.208 120.78C480.364 120.45 480.588 120.201 480.88 120.032L484.504 117.938C484.7 117.825 484.865 117.837 485.001 117.966C485.138 118.098 485.205 118.316 485.205 118.614C485.205 118.734 485.197 118.86 485.177 118.989L480.529 142.51C480.47 142.816 480.369 143.129 480.222 143.453C480.076 143.778 479.857 144.024 479.564 144.193L476.232 146.117C475.94 146.286 475.725 146.289 475.589 146.128C475.453 145.966 475.345 145.773 475.266 145.549L473.192 137.297L471.117 147.945C471.038 148.26 470.93 148.578 470.796 148.896C470.658 149.214 470.444 149.458 470.15 149.628L466.818 151.552C466.528 151.72 466.309 151.726 466.161 151.57C466.016 151.416 465.914 151.218 465.856 150.982L461.206 132.829C461.188 132.721 461.177 132.606 461.177 132.486C461.177 132.188 461.246 131.893 461.382 131.604C461.518 131.316 461.684 131.114 461.878 131.001L465.504 128.909C465.797 128.74 466.02 128.732 466.177 128.88C466.332 129.032 466.438 129.209 466.497 129.416L468.66 138.382L470.824 126.917C470.882 126.644 470.989 126.341 471.146 126.012C471.302 125.682 471.526 125.432 471.817 125.262L474.566 123.677Z" fill="#375A64"/>
<path d="M491.667 135.991C491.667 136.322 491.588 136.651 491.432 136.982C491.277 137.311 491.091 137.538 490.877 137.662L487.048 139.872C486.833 139.996 486.648 139.983 486.492 139.834C486.336 139.683 486.259 139.444 486.259 139.114V133.218C486.259 132.888 486.336 132.558 486.492 132.227C486.648 131.898 486.833 131.671 487.048 131.547L490.877 129.336C491.091 129.212 491.277 129.226 491.432 129.376C491.588 129.526 491.667 129.766 491.667 130.095V135.991Z" fill="#375A64"/>
<path d="M276.592 182.87L276.593 182.865L276.489 182.801C276.485 182.8 276.482 182.797 276.478 182.794L249.804 166.958C249.796 166.953 249.788 166.949 249.78 166.944L249.633 166.854L249.63 166.861C237.882 159.778 222.205 160.894 205.344 171.904C171.47 194.021 145.657 247.668 147.69 291.725C148.704 313.685 156.446 329.114 168.15 336.332L168.148 336.337L168.252 336.4C168.256 336.402 168.26 336.405 168.264 336.408L194.944 352.248C194.948 352.25 194.952 352.253 194.954 352.254L195.078 352.33L195.081 352.324C206.833 359.426 222.522 358.317 239.397 347.298C273.272 325.181 299.085 271.534 297.052 227.477C296.038 205.516 288.296 190.088 276.592 182.87Z" fill="#2B454E"/>
<path d="M194.088 351.704L168.272 336.406H168.253L168.14 336.326C156.443 329.093 148.703 313.664 147.692 291.733C146.784 272.085 151.427 250.54 159.828 230.748L159.997 230.313L186.512 246.582C178.092 266.376 173.468 287.92 174.375 307.568C175.367 329.058 182.803 344.288 194.088 351.704Z" fill="#1A2E35"/>
<path d="M239.398 347.299C273.271 325.182 299.084 271.535 297.051 227.476C295.019 183.419 265.91 165.632 232.036 187.751C198.162 209.87 172.348 263.515 174.382 307.574C176.415 351.631 205.524 369.416 239.398 347.299Z" fill="#375A64"/>
<path d="M255.74 205.065C250.634 205.065 245.04 206.75 239.297 210.092C215.401 223.99 195.962 261.522 195.962 293.754C195.962 310.278 201.15 322.74 210.196 327.942C217.452 332.113 226.877 331.26 236.732 325.524C260.626 311.622 280.065 274.092 280.065 241.861C280.065 225.337 274.878 212.876 265.832 207.672C262.804 205.929 259.397 205.065 255.74 205.065ZM220.28 335.664C215.749 335.664 211.486 334.568 207.653 332.364C196.982 326.225 190.861 312.153 190.861 293.754C190.861 259.905 211.438 220.396 236.732 205.682C248.233 198.99 259.472 198.13 268.376 203.252C279.045 209.388 285.166 223.461 285.166 241.861C285.166 275.709 264.589 315.217 239.297 329.932C232.746 333.744 226.278 335.664 220.28 335.664Z" fill="#3CA73D"/>
<path d="M220.273 251.023C214.665 251.023 209.503 249.277 205.043 245.783L207.403 242.774C215.195 248.881 225.727 248.615 237.052 242.025C248.788 235.197 259.816 222.552 268.103 206.418L271.507 208.165C262.888 224.942 251.336 238.141 238.976 245.331C232.456 249.123 226.123 251.023 220.273 251.023Z" fill="#3CA73D"/>
<path d="M207.926 329.195L204.522 327.447C213.138 310.673 224.691 297.474 237.052 290.282C249.827 282.854 261.875 282.694 270.984 289.83L268.624 292.839C260.831 286.735 250.3 287.003 238.976 293.59C227.238 300.417 216.211 313.062 207.926 329.195Z" fill="#3CA73D"/>
<path d="M242.943 208.339C241.669 208.339 240.353 208.739 238.976 209.54C227.152 216.419 217.163 249.165 217.163 281.049C217.163 307.317 223.519 322.732 229.816 326.355C232.101 327.671 234.471 327.577 237.052 326.075C248.876 319.197 258.864 286.449 258.864 254.565C258.864 228.296 252.509 212.881 246.211 209.259C245.144 208.645 244.06 208.339 242.943 208.339ZM233.076 331.1C231.304 331.1 229.567 330.624 227.911 329.671C218.92 324.5 213.337 305.869 213.337 281.049C213.337 246.832 223.753 213.969 237.052 206.233C240.816 204.044 244.639 203.943 248.119 205.943C257.107 211.113 262.691 229.744 262.691 254.565C262.691 288.781 252.273 321.644 238.976 329.381C237.007 330.527 235.021 331.1 233.076 331.1Z" fill="#3CA73D"/>
<path d="M239.927 327.728H236.101V207.887H239.927V327.728Z" fill="#3CA73D"/>
<path d="M194.374 295.408L192.45 292.101L281.654 240.208L283.578 243.514L194.374 295.408Z" fill="#3CA73D"/>
</g>
<mask id="mask9_102_3" style="mask-type:luminance" maskUnits="userSpaceOnUse" x="0" y="0" width="667" height="667">
<path d="M0 6.10352e-05H666.667V666.667H0V6.10352e-05Z" fill="white"/>
</mask>
<g mask="url(#mask9_102_3)">
<path d="M550.121 183.311C549.677 182.387 549.126 181.804 548.529 181.455L548.538 181.453L544.565 179.157V179.168C542.836 178.175 540.722 179.157 539.605 179.844L537.125 178.412C534.114 176.595 529.932 180.396 528.994 181.309L527.924 180.691V180.693C526.508 179.839 524.581 180.379 522.872 181.241V166.793C522.872 165.209 522.329 164.089 521.448 163.539L521.453 163.537L521.412 163.513C521.389 163.5 521.368 163.487 521.344 163.475L517.444 161.22C517.441 161.217 517.437 161.216 517.434 161.215L517.408 161.199L517.406 161.2C516.485 160.688 515.225 160.769 513.833 161.573C511.016 163.2 508.732 167.156 508.732 170.409V214.665C508.529 214.567 508.326 214.472 508.124 214.383C504.637 211.925 500.98 210.465 497.748 211.04C494.662 211.588 491.909 214.215 491.108 215.625C489.421 218.599 492.204 220.465 495.79 224.567C499.344 228.631 502.48 233.525 505.717 236.545C508.954 239.565 511.301 240.351 511.301 240.351V246.14L515.24 248.415L545.213 231.109V225.32C545.213 225.32 548.933 210.492 550.121 204.295C551.309 198.099 552.408 188.063 550.121 183.311Z" fill="#3CA73D"/>
<mask id="mask10_102_3" style="mask-type:luminance" maskUnits="userSpaceOnUse" x="490" y="160" width="62" height="89">
<path d="M490.603 160.879H551.455V248.415H490.603V160.879Z" fill="white"/>
</mask>
<g mask="url(#mask10_102_3)">
<g opacity="0.800003">
<path d="M550.121 183.311C549.677 182.387 549.126 181.804 548.529 181.455L548.538 181.453L544.565 179.157V179.168C542.836 178.175 540.722 179.157 539.605 179.844L537.125 178.412C534.114 176.595 529.932 180.396 528.994 181.309L527.924 180.691V180.693C526.508 179.839 524.581 180.379 522.872 181.241V166.793C522.872 165.209 522.329 164.089 521.448 163.539L521.453 163.537L521.412 163.513C521.389 163.5 521.368 163.487 521.344 163.475L517.444 161.22C517.441 161.217 517.437 161.216 517.434 161.215L517.408 161.199L517.406 161.2C516.485 160.688 515.225 160.769 513.833 161.573C511.016 163.2 508.732 167.156 508.732 170.409V214.665C508.529 214.567 508.326 214.472 508.124 214.383C504.637 211.925 500.98 210.465 497.748 211.04C494.662 211.588 491.909 214.215 491.108 215.625C489.421 218.599 492.204 220.465 495.79 224.567C499.344 228.631 502.48 233.525 505.717 236.545C508.954 239.565 511.301 240.351 511.301 240.351V246.14L515.24 248.415L545.213 231.109V225.32C545.213 225.32 548.933 210.492 550.121 204.295C551.309 198.099 552.408 188.063 550.121 183.311Z" fill="white"/>
</g>
</g>
<mask id="mask11_102_3" style="mask-type:luminance" maskUnits="userSpaceOnUse" x="490" y="170" width="56" height="79">
<path d="M490.603 170.409H545.032V248.417H490.603V170.409Z" fill="white"/>
</mask>
<g mask="url(#mask11_102_3)">
<g opacity="0.199997">
<path d="M509.654 238.816C506.416 235.799 503.28 230.907 499.734 226.838C496.367 222.987 493.698 221.104 494.794 218.426L490.854 216.148C489.756 218.827 492.416 220.711 495.792 224.57C499.348 228.63 502.475 233.522 505.712 236.548C508.959 239.566 511.299 240.352 511.299 240.352V246.14L515.24 248.418V242.63C515.24 242.63 512.891 241.843 509.654 238.816ZM522.858 181.282L522.876 181.291V181.246L522.858 181.282ZM508.731 170.41V214.667C510.047 215.307 511.372 216.139 512.672 217.099V172.687L508.731 170.41ZM531.655 179.206C530.402 179.992 529.396 180.916 528.994 181.31L531.59 182.818C531.635 182.846 531.691 182.864 531.736 182.9C532.112 183.092 532.451 183.386 532.742 183.778L532.751 183.768C532.871 183.65 533.995 182.498 535.514 181.528L531.655 179.206ZM540.982 179.16C540.451 179.371 539.975 179.618 539.61 179.846L540.88 180.587C541.584 180.954 542.235 181.611 542.764 182.654C542.764 182.654 543.742 181.867 545.032 181.383L540.982 179.16ZM522.876 181.291V186.192L522.886 186.183C523.04 186.046 524.732 184.583 526.735 183.55L522.876 181.291Z" fill="#3CA73D"/>
</g>
</g>
<mask id="mask12_102_3" style="mask-type:luminance" maskUnits="userSpaceOnUse" x="490" y="170" width="56" height="79">
<path d="M490.603 170.409H545.032V248.417H490.603V170.409Z" fill="white"/>
</mask>
<g mask="url(#mask12_102_3)">
<g opacity="0.100006">
<path d="M509.654 238.816C506.416 235.799 503.28 230.907 499.734 226.838C496.367 222.987 493.698 221.104 494.794 218.426L490.854 216.148C489.756 218.827 492.416 220.711 495.792 224.57C499.348 228.63 502.475 233.522 505.712 236.548C508.959 239.566 511.299 240.352 511.299 240.352V246.14L515.24 248.418V242.63C515.24 242.63 512.891 241.843 509.654 238.816ZM522.858 181.282L522.876 181.291V181.246L522.858 181.282ZM508.731 170.41V214.667C510.047 215.307 511.372 216.139 512.672 217.099V172.687L508.731 170.41ZM531.655 179.206C530.402 179.992 529.396 180.916 528.994 181.31L531.59 182.818C531.635 182.846 531.691 182.864 531.736 182.9C532.112 183.092 532.451 183.386 532.742 183.778L532.751 183.768C532.871 183.65 533.995 182.498 535.514 181.528L531.655 179.206ZM540.982 179.16C540.451 179.371 539.975 179.618 539.61 179.846L540.88 180.587C541.584 180.954 542.235 181.611 542.764 182.654C542.764 182.654 543.742 181.867 545.032 181.383L540.982 179.16ZM522.876 181.291V186.192L522.886 186.183C523.04 186.046 524.732 184.583 526.735 183.55L522.876 181.291Z" fill="black"/>
</g>
</g>
<path d="M515.24 248.414V242.626C515.24 242.626 512.893 241.839 509.657 238.819C506.42 235.799 503.284 230.905 499.73 226.841C496.145 222.739 493.361 220.874 495.048 217.899C495.848 216.49 498.602 213.863 501.686 213.314C505.106 212.706 509.005 214.375 512.67 217.095V172.683C512.67 169.43 514.954 165.474 517.772 163.849C520.589 162.221 522.873 163.541 522.873 166.793V186.191C522.873 186.191 529.902 179.949 532.742 183.777C532.742 183.777 539.648 176.543 542.765 182.653C542.765 182.653 547.834 178.558 550.121 183.31C552.408 188.062 551.31 198.098 550.121 204.295C548.934 210.493 545.213 225.321 545.213 225.321V231.109L515.24 248.414Z" fill="#3CA73D"/>
<mask id="mask13_102_3" style="mask-type:luminance" maskUnits="userSpaceOnUse" x="494" y="163" width="58" height="86">
<path d="M494.543 163.152H551.455V248.415H494.543V163.152Z" fill="white"/>
</mask>
<g mask="url(#mask13_102_3)">
<g opacity="0.649994">
<path d="M515.24 248.414V242.626C515.24 242.626 512.893 241.839 509.657 238.819C506.42 235.799 503.284 230.905 499.73 226.841C496.145 222.739 493.361 220.874 495.048 217.899C495.848 216.49 498.602 213.863 501.686 213.314C505.106 212.706 509.005 214.375 512.67 217.095V172.683C512.67 169.43 514.954 165.474 517.772 163.849C520.589 162.221 522.873 163.541 522.873 166.793V186.191C522.873 186.191 529.902 179.949 532.742 183.777C532.742 183.777 539.648 176.543 542.765 182.653C542.765 182.653 547.834 178.558 550.121 183.31C552.408 188.062 551.31 198.098 550.121 204.295C548.934 210.493 545.213 225.321 545.213 225.321V231.109L515.24 248.414Z" fill="white"/>
</g>
</g>
<mask id="mask14_102_3" style="mask-type:luminance" maskUnits="userSpaceOnUse" x="522" y="181" width="24" height="14">
<path d="M522.857 181.384H545.024V194.52H522.857V181.384Z" fill="white"/>
</mask>
<g mask="url(#mask14_102_3)">
<g opacity="0.100006">
<path d="M522.872 194.52C522.872 194.52 523.512 185.669 526.764 183.565C526.764 183.565 526.718 183.579 526.648 183.599C524.578 184.677 522.872 186.191 522.872 186.191V186.024C522.838 186.135 522.872 186.191 522.872 186.191V194.52Z" fill="black"/>
<path d="M532.742 183.776V191.873C532.742 191.873 533.641 183.548 535.506 181.536C533.918 182.549 532.749 183.769 532.742 183.776Z" fill="black"/>
<path d="M542.766 182.652V190.779C542.766 190.779 543.26 182.592 545.023 181.384C543.742 181.867 542.772 182.648 542.766 182.652Z" fill="black"/>
</g>
</g>
</g>
<mask id="mask15_102_3" style="mask-type:luminance" maskUnits="userSpaceOnUse" x="0" y="-7" width="667" height="668">
<path d="M0 -6.60852H666.667V660.058H0V-6.60852Z" fill="white"/>
</mask>
<g mask="url(#mask15_102_3)">
<mask id="mask16_102_3" style="mask-type:luminance" maskUnits="userSpaceOnUse" x="422" y="410" width="101" height="72">
<path d="M422.173 410.656H522.883V481.361H422.173V410.656Z" fill="white"/>
</mask>
<g mask="url(#mask16_102_3)">
<g opacity="0.149994">
<path d="M448.701 415.199C425.673 426.674 415.221 438.73 427.141 447.178C439.062 455.626 471.503 467.063 471.503 467.063L475.755 481.361L522.883 454.153V437.967C522.883 437.967 493.805 417.921 482.45 414.059C471.095 410.197 462.198 408.474 448.701 415.199Z" fill="black"/>
</g>
</g>
<path d="M513.685 488.175C513.685 488.175 506.568 505.62 506.205 512.502C505.826 519.672 504.094 522.047 505.31 529.847C505.574 531.544 506.466 534.951 506.689 536.33C506.886 537.558 506.426 538.546 504.846 538.872C501.734 539.518 496.568 533.672 494.108 527.312C491.649 520.952 488.162 506.606 487.946 504.887C487.737 503.231 488.288 501.171 488.932 499.868C490.058 497.582 490.361 497.268 490.361 497.268C491.39 494.147 491.884 488.214 492.753 484.107L513.685 488.175Z" fill="#FFAAA8"/>
<path d="M481.861 511.424C481.861 511.424 481.075 512.856 481.027 513.775C480.953 515.204 484.183 519.917 485.45 521.633C486.718 523.349 487.957 525.499 487.783 529.784C487.598 534.364 489.619 538.771 492.577 542.547C495.533 546.323 500.665 550.459 508.218 552.783C515.771 555.108 518.434 551.323 518.434 551.323C518.434 551.323 520.777 547.677 519.369 546.184C517.959 544.691 481.861 511.424 481.861 511.424Z" fill="#1A2E35"/>
<path d="M490.361 497.269C490.131 497.261 489.725 497.196 489.133 497.909C488.909 498.18 487.531 501.576 486.389 503.358C485.165 505.268 482.245 508.528 481.861 511.424C483.61 517.024 488.862 520.92 489.651 526.208C490.441 531.493 490.529 537.63 498.654 544.101C506.779 550.57 515.133 551.238 518.135 549.525C521.138 547.813 520.863 544.597 516.678 538.47C512.235 531.968 509.243 517.878 509.242 517.873C508.829 515.924 508.613 513.865 508.457 511.88C508.305 509.95 508.867 507.89 509.018 505.95C509.089 505.033 509.125 504.046 508.638 503.264C508.153 502.482 507.251 502.078 506.403 501.718C505.049 501.144 503.679 500.565 502.23 500.305C500.781 500.045 499.225 500.128 497.93 500.825C496.993 501.329 496.225 502.132 495.242 502.54C493.923 503.085 492.299 502.796 491.253 501.826C489.709 500.398 489.937 499.113 490.173 498.16C490.146 498.132 490.361 497.269 490.361 497.269Z" fill="#375A64"/>
<path d="M493.905 538.914C493.905 538.914 497.053 532.513 505.681 532.546C514.308 532.579 517.293 536.969 518.605 539.55C520.168 542.625 521.797 548.197 518.236 549.795C514.39 551.523 509.936 550.989 502.93 547.477C495.924 543.966 493.905 538.914 493.905 538.914Z" fill="#FAFAFA"/>
<path d="M495.477 512.927C495.722 513.043 496.013 513.051 496.265 512.923C497.598 512.244 504.647 510.768 508.754 514.58C509.286 514.152 509.178 513.372 508.498 512.274C503.691 509.222 497.017 510.584 495.409 511.406C494.987 511.62 494.838 512.135 495.074 512.552C495.17 512.722 495.311 512.848 495.477 512.927Z" fill="#FAFAFA"/>
<path d="M509.642 519.607C509.938 518.844 509.566 517.664 509.143 517.238C504.403 514.664 498.203 515.951 496.661 516.736C496.238 516.951 496.09 517.464 496.326 517.883C496.421 518.052 496.562 518.179 496.727 518.258C496.973 518.375 497.265 518.383 497.515 518.254C498.81 517.595 505.499 516.203 509.642 519.607Z" fill="#FAFAFA"/>
<path d="M513.16 531.264C513.196 530.208 512.82 529.163 512.057 528.142C507.268 525.255 500.748 526.588 499.163 527.398C498.741 527.612 498.591 528.127 498.827 528.544C498.923 528.714 499.065 528.84 499.231 528.92C499.475 529.036 499.767 529.044 500.019 528.916C501.424 528.199 509.199 526.6 513.16 531.264Z" fill="#FAFAFA"/>
<path d="M497.979 523.589C498.225 523.705 498.515 523.713 498.767 523.585C500.085 522.914 506.99 521.475 511.117 525.122C511.303 524.322 511.077 523.463 510.397 522.567C505.654 519.994 499.453 521.281 497.91 522.067C497.49 522.282 497.341 522.797 497.577 523.214C497.673 523.383 497.814 523.51 497.979 523.589Z" fill="#FAFAFA"/>
<path d="M521.35 509.598C521.35 509.598 524.878 530.876 528.801 539.133C532.724 547.389 534.74 551.376 540.144 557.622C541.321 558.982 544.001 561.51 544.964 562.61C545.821 563.59 545.958 564.722 544.738 565.888C542.336 568.186 532.148 568.732 526.437 564.452C520.728 560.172 515.529 551.054 512.124 547.609C510.845 546.314 509.641 544.992 508.494 543.588C507.39 542.233 507.693 540.946 507.596 539.43C507.548 538.697 507.654 536.694 507.654 536.694C506.873 533.112 504.758 527.489 503.636 523.997L521.35 509.598Z" fill="#FFAAA8"/>
<path d="M505.641 552.772C505.641 552.772 505.538 554.479 505.902 555.368C506.471 556.755 511.633 559.771 513.598 560.828C515.563 561.887 517.697 563.367 519.446 567.5C521.317 571.916 525.199 575.184 529.683 577.437C534.169 579.689 540.87 581.311 549.057 580.136C557.242 578.961 558.071 574.191 558.071 574.191C558.071 574.191 558.661 569.695 556.661 568.911C554.662 568.127 505.641 552.772 505.641 552.772Z" fill="#1A2E35"/>
<path d="M507.362 535.581C507.141 535.675 506.727 535.795 506.486 536.734C506.394 537.09 506.609 540.919 506.323 543.118C506.017 545.47 504.711 549.859 505.641 552.773C509.797 557.29 516.507 558.631 519.615 563.281C522.723 567.931 525.55 573.698 536.129 576.191C546.707 578.685 554.91 575.585 556.987 572.623C559.062 569.662 557.366 566.741 550.669 562.813C543.561 558.643 534.437 546.649 534.433 546.643C533.169 544.983 532.047 543.133 531.013 541.323C530.006 539.565 529.618 537.365 528.893 535.462C528.551 534.561 528.145 533.611 527.334 533.089C526.526 532.566 525.494 532.587 524.53 532.625C522.991 532.686 521.438 532.75 519.949 533.151C518.462 533.553 517.027 534.326 516.111 535.566C515.45 536.462 515.083 537.563 514.334 538.387C513.331 539.493 511.666 539.943 510.241 539.495C508.142 538.833 507.783 537.515 507.582 536.507C507.543 536.493 507.362 535.581 507.362 535.581Z" fill="#375A64"/>
<path d="M529.318 573.406C529.318 573.406 529.438 565.942 537.616 562.12C545.794 558.296 550.58 561.118 552.975 562.974C555.828 565.184 559.858 569.731 557.203 572.835C554.335 576.187 549.882 577.671 541.682 577.478C533.484 577.284 529.318 573.406 529.318 573.406Z" fill="#FAFAFA"/>
<path d="M519.197 548.113C519.481 548.114 519.761 547.991 519.941 547.757C520.898 546.519 526.911 541.974 532.501 543.746C532.813 543.105 532.362 542.414 531.226 541.678C525.315 540.938 519.609 545.207 518.453 546.703C518.15 547.094 518.238 547.649 518.649 547.938C518.814 548.055 519.005 548.111 519.197 548.113Z" fill="#FAFAFA"/>
<path d="M535.585 548.106C535.525 547.251 534.646 546.301 534.055 546.086C528.421 545.769 523.127 549.755 522.018 551.189C521.715 551.579 521.803 552.133 522.214 552.423C522.381 552.541 522.571 552.597 522.762 552.598C523.046 552.599 523.326 552.477 523.505 552.243C524.437 551.041 530.143 546.735 535.585 548.106Z" fill="#FAFAFA"/>
<path d="M544.121 557.566C543.685 556.551 542.861 555.73 541.682 555.104C535.862 554.511 530.289 558.684 529.149 560.159C528.845 560.551 528.933 561.104 529.344 561.395C529.51 561.512 529.702 561.568 529.893 561.568C530.176 561.57 530.456 561.447 530.637 561.214C531.648 559.907 538.29 554.922 544.121 557.566Z" fill="#FAFAFA"/>
<path d="M526.328 557.083C526.611 557.085 526.891 556.962 527.071 556.729C528.019 555.503 533.911 551.058 539.443 552.666C539.263 551.826 538.665 551.114 537.62 550.571C531.983 550.254 526.691 554.242 525.583 555.674C525.28 556.066 525.368 556.619 525.779 556.909C525.945 557.027 526.136 557.083 526.328 557.083Z" fill="#FAFAFA"/>
<path d="M474.402 388.425C483.126 394.818 513.509 412.358 525.846 423.778C529.41 427.077 530.584 431.42 529.708 440.885C528.517 453.73 518.422 497.508 518.422 497.508C517.033 499.978 514.588 495.289 514.588 495.289L466.442 434.168L474.402 388.425Z" fill="#3CA73D"/>
<mask id="mask17_102_3" style="mask-type:luminance" maskUnits="userSpaceOnUse" x="466" y="388" width="64" height="111">
<path d="M466.443 388.425H529.985V498.227H466.443V388.425Z" fill="white"/>
</mask>
<g mask="url(#mask17_102_3)">
<g opacity="0.300003">
<path d="M474.402 388.425C483.126 394.818 513.509 412.358 525.846 423.778C529.41 427.077 530.584 431.42 529.708 440.885C528.517 453.73 518.422 497.508 518.422 497.508C517.033 499.978 514.588 495.289 514.588 495.289L466.442 434.168L474.402 388.425Z" fill="black"/>
</g>
</g>
<mask id="mask18_102_3" style="mask-type:luminance" maskUnits="userSpaceOnUse" x="469" y="399" width="48" height="85">
<path d="M469.209 399.279H516.352V483.876H469.209V399.279Z" fill="white"/>
</mask>
<g mask="url(#mask18_102_3)">
<g opacity="0.300003">
<path d="M516.333 483.876C505.195 474.568 469.209 417.792 469.209 417.792C469.209 417.792 469.219 417.783 469.228 417.775C474.129 413.634 476.656 399.279 476.656 399.279C478.599 404.818 476.547 413.17 475.037 416.223C477.872 418.676 493.881 431.843 505.004 440.646C507.793 442.854 510.644 445.58 511.6 450.604C513.892 462.647 516.596 481.44 516.333 483.876Z" fill="black"/>
</g>
</g>
<path d="M474.402 388.425L412.429 402.146C415.454 413.521 416.318 419.396 419.477 425.386C422.646 431.397 426.154 437.806 442.274 445.742C457.794 453.384 476.752 461.254 480.544 463.057C483.402 464.417 484.764 470.132 486.057 477.541C487.41 485.313 487.534 491.394 495.221 507.704C502.749 523.674 504.286 527.125 504.286 527.125C504.286 527.125 515.933 528.337 523.664 521.536C523.664 521.536 513.116 466.78 510.868 456.922C509.612 451.417 509.586 448.514 502.75 442.464C496.889 437.278 470.714 417.466 470.714 417.466C470.714 417.466 481.109 403.504 474.402 388.425Z" fill="#3CA73D"/>
<mask id="mask19_102_3" style="mask-type:luminance" maskUnits="userSpaceOnUse" x="412" y="388" width="112" height="140">
<path d="M412.428 388.425H523.664V527.209H412.428V388.425Z" fill="white"/>
</mask>
<g mask="url(#mask19_102_3)">
<g opacity="0.300003">
<path d="M474.402 388.425L412.429 402.146C415.454 413.521 416.318 419.396 419.477 425.386C422.646 431.397 426.154 437.806 442.274 445.742C457.794 453.384 476.752 461.254 480.544 463.057C483.402 464.417 484.764 470.132 486.057 477.541C487.41 485.313 487.534 491.394 495.221 507.704C502.749 523.674 504.286 527.125 504.286 527.125C504.286 527.125 515.933 528.337 523.664 521.536C523.664 521.536 513.116 466.78 510.868 456.922C509.612 451.417 509.586 448.514 502.75 442.464C496.889 437.278 470.714 417.466 470.714 417.466C470.714 417.466 481.109 403.504 474.402 388.425Z" fill="black"/>
</g>
</g>
<path d="M545.637 285.473C544.595 285.369 543.522 285.64 542.566 286.091C541.434 286.624 540.434 287.396 539.426 288.139C537.885 289.273 536.302 290.353 534.683 291.373C533.243 292.283 531.725 293.3 530.01 293.583C529.437 293.677 528.214 293.697 528.838 292.827C529.654 291.689 530.57 290.609 531.179 289.349C531.789 288.091 532.062 286.584 531.525 285.292C531.362 284.903 531.11 284.525 530.726 284.348C530.185 284.099 529.909 284.388 529.598 284.744C529.271 285.117 528.881 285.436 528.503 285.767C527.73 286.449 526.957 287.135 526.194 287.828C521.734 291.879 516.313 295.389 514.405 301.24C514.129 302.087 512.866 305.945 512.826 312.369C512.785 318.795 512.405 341.156 512.405 341.156C512.405 341.156 494.646 326.219 486.942 319.781C483.229 316.677 478.038 312.909 472.319 312.367C468.271 311.983 465.909 312.005 465.909 312.005L478.022 341.371C478.022 341.371 500.926 358.411 511.907 364.277C521.818 369.572 526.638 365.759 527.835 362.98C529.821 358.375 531.858 356.216 529.063 330.511C528.863 328.521 528.617 322.831 528.393 320.844C528.105 316.696 528.574 312.477 530.182 311.577C533.139 309.919 536.035 308.112 538.585 305.877C540.263 304.407 541.789 302.747 543.027 300.885C543.546 300.105 544.449 298.972 544.547 298.017C544.646 297.051 544.221 296.027 544.515 295.072C544.715 294.42 545.154 293.889 545.318 293.193C545.653 291.777 545.53 290.151 546.431 288.924C546.927 288.249 547.753 287.641 547.638 286.812C547.549 286.148 546.865 285.729 546.214 285.571C546.023 285.525 545.831 285.492 545.637 285.473Z" fill="#FFAAA8"/>
<path d="M527.519 296.626C527.021 300.092 524.547 304.421 522.889 305.876C522.889 305.876 525.658 304.302 526.825 301.885C528.105 299.236 527.961 297.889 527.519 296.626Z" fill="#FF9090"/>
<path d="M464.686 311.412C470.869 311.682 475.686 311.819 480.957 314.862C486.227 317.906 509.767 337.608 509.767 337.608C509.767 337.608 509.998 327.578 510.601 322.292C511.017 318.63 511.625 317.478 512.769 317.66C512.769 317.66 514.81 320.79 520.594 321.223C526.378 321.658 528.321 319.256 528.321 319.256C528.321 319.256 530.007 318.859 530.614 321.223C531.221 323.587 532.313 349.212 531.257 356.595C530.202 363.979 526.893 367.41 522.458 368.448C518.023 369.488 507.745 363.274 495.399 354.971C483.054 346.668 469.65 338.93 469.65 338.93L464.686 311.412Z" fill="#3CA73D"/>
<mask id="mask20_102_3" style="mask-type:luminance" maskUnits="userSpaceOnUse" x="464" y="311" width="68" height="58">
<path d="M464.687 311.412H531.699V368.563H464.687V311.412Z" fill="white"/>
</mask>
<g mask="url(#mask20_102_3)">
<g opacity="0.699997">
<path d="M464.686 311.412C470.869 311.682 475.686 311.819 480.957 314.862C486.227 317.906 509.767 337.608 509.767 337.608C509.767 337.608 509.998 327.578 510.601 322.292C511.017 318.63 511.625 317.478 512.769 317.66C512.769 317.66 514.81 320.79 520.594 321.223C526.378 321.658 528.321 319.256 528.321 319.256C528.321 319.256 530.007 318.859 530.614 321.223C531.221 323.587 532.313 349.212 531.257 356.595C530.202 363.979 526.893 367.41 522.458 368.448C518.023 369.488 507.745 363.274 495.399 354.971C483.054 346.668 469.65 338.93 469.65 338.93L464.686 311.412Z" fill="white"/>
</g>
</g>
<mask id="mask21_102_3" style="mask-type:luminance" maskUnits="userSpaceOnUse" x="506" y="335" width="5" height="17">
<path d="M506.885 335.284H510.275V351.993H506.885V335.284Z" fill="white"/>
</mask>
<g mask="url(#mask21_102_3)">
<g opacity="0.100006">
<path d="M509.767 337.608C508.763 344.486 510.275 351.993 510.275 351.993C510.275 351.993 505.76 343.271 507.151 335.284L509.767 337.608Z" fill="black"/>
</g>
</g>
<path d="M413.863 316.826C412.845 322.228 402.582 373.557 414.255 411.835C435.274 414.315 472.189 404.665 477.723 390.754C477.723 390.754 473.994 377.553 472.377 371.099C472.719 360.509 472.373 340.299 472.159 334.046C471.735 321.654 469.799 312.069 463.653 311.162C463.653 311.162 451.309 310.675 443.837 310.981C437.385 311.245 432.535 311.314 432.535 311.314L413.863 316.826Z" fill="#FAFAFA"/>
<path d="M444.738 398.415C443.38 395.403 418.432 379.999 418.432 379.999C418.432 379.999 418.812 372.863 420.297 359.735C421.782 346.607 422.221 330.871 417.489 322.963L412.718 323.148C410.021 339.073 404.537 379.967 414.256 411.836C425.461 413.157 441.185 411.029 454.264 406.649C451.852 405.031 445.82 400.815 444.738 398.415Z" fill="#F0F0F0"/>
<path d="M430.371 299.266C430.411 296.612 425.322 288.677 423.016 282.401C419.163 271.906 418.827 262.486 428.338 258.396C428.338 258.396 434.284 248.142 449.275 247.632C464.264 247.122 475.788 259.776 470.808 276.694L430.371 299.266Z" fill="#375A64"/>
<path d="M434.075 283.055C432.118 283.055 431.406 280.244 430.062 278.735C428.719 277.227 424.089 275.528 421.105 279.848C418.335 283.859 421.027 289.636 424.05 291.872C427.857 294.687 430.483 291.971 430.483 291.971L430.138 313.156C430.138 313.156 430.813 317.853 439.467 320.58C449.462 323.729 457.597 318.468 451.643 311.873L451.865 306.292C454.703 306.933 458.582 307.279 461.529 306.831C464.862 306.324 467.533 303.812 469.246 298.673C472.591 288.639 471.662 275.259 468.21 263.043C464.911 265.651 449.651 270.541 435.906 265.693C436.391 274.132 435.989 283.055 434.075 283.055Z" fill="#FFAAA8"/>
<path d="M428.645 289.594C428.645 290.28 428.09 290.834 427.403 290.834C426.719 290.834 426.165 290.28 426.165 289.594C426.165 288.909 426.719 288.354 427.403 288.354C428.09 288.354 428.645 288.909 428.645 289.594Z" fill="#1A2E35"/>
<path d="M451.866 306.292C451.866 306.292 443.525 303.856 440.234 301.55C437.806 299.847 435.643 297.135 435.118 295.714C435.118 295.714 436.367 300.186 438.643 302.771C442.623 307.295 451.757 309.384 451.757 309.384L451.866 306.292Z" fill="#FF9090"/>
<path d="M451.194 282.94C451.217 284.132 450.305 285.112 449.159 285.131C448.011 285.15 447.063 284.198 447.042 283.007C447.019 281.815 447.931 280.835 449.078 280.816C450.223 280.799 451.171 281.75 451.194 282.94Z" fill="#1A2E35"/>
<path d="M448.926 275.859L444.438 278.225C443.807 276.937 444.3 275.362 445.54 274.709C446.78 274.055 448.295 274.57 448.926 275.859Z" fill="#1A2E35"/>
<path d="M450.543 293.854L457.682 296.13C456.978 298.128 454.808 299.239 452.838 298.61C450.866 297.982 449.839 295.852 450.543 293.854Z" fill="#FF9090"/>
<path d="M468.139 275.769L463.209 274.418C463.534 273.032 464.901 272.21 466.262 272.584C467.623 272.957 468.465 274.382 468.139 275.769Z" fill="#1A2E35"/>
<path d="M466.865 281.302C466.887 282.493 465.975 283.474 464.829 283.493C463.682 283.51 462.734 282.56 462.713 281.368C462.689 280.177 463.602 279.196 464.747 279.178C465.894 279.16 466.841 280.11 466.865 281.302Z" fill="#1A2E35"/>
<path d="M469.161 263.042C473.769 259.757 476.335 255.365 475.111 249.317C473.312 251.124 468.271 251.446 463.86 249.342C459.156 247.097 451.693 244.05 441.251 246.072C433.108 247.649 428.337 253.841 428.337 258.396C429.931 261.656 432.124 263.393 435.907 265.693C435.907 265.693 443.715 272.082 455.559 271.35C463.179 270.878 467.132 267.164 467.132 267.164C467.132 267.164 462.873 267.538 460.881 266.216C460.881 266.216 465.716 265.498 469.161 263.042Z" fill="#2B454E"/>
<path d="M457.935 291.206L464.295 288.305L456.168 277.101L457.935 291.206Z" fill="#FF9090"/>
<mask id="mask22_102_3" style="mask-type:luminance" maskUnits="userSpaceOnUse" x="438" y="400" width="90" height="55">
<path d="M438.635 400.32H527.779V454.811H438.635V400.32Z" fill="white"/>
</mask>
<g mask="url(#mask22_102_3)">
<g opacity="0.149994">
<path d="M527.779 426.046C527.236 425.22 526.597 424.473 525.847 423.778C518.436 416.918 504.517 407.853 492.689 400.32L438.881 431.389C438.552 431.58 438.552 432.056 438.881 432.246L477.96 454.812L527.779 426.046Z" fill="black"/>
</g>
</g>
<path d="M544.094 410.249V411.118C544.094 412.393 543.414 413.573 542.307 414.217L479.744 450.334C479.196 450.657 478.571 450.807 477.964 450.807C477.344 450.807 476.726 450.654 476.166 450.331L442.064 430.707C440.967 430.075 440.28 428.885 440.28 427.61V426.406H440.288V426.418C440.288 426.573 440.359 426.715 440.514 426.811L477.964 448.437L544.094 410.249Z" fill="#2B454E"/>
<path d="M477.96 448.431V450.811C478.574 450.811 479.194 450.654 479.745 450.335L542.308 414.215C543.416 413.578 544.098 412.394 544.098 411.116V410.246L477.96 448.431Z" fill="#1A2E35"/>
<path d="M544.098 410.246L507.003 388.831C506.344 388.451 505.531 388.451 504.871 388.831L440.516 425.991C440.202 426.174 440.202 426.63 440.516 426.812L477.959 448.434L544.098 410.246Z" fill="#375A64"/>
<path d="M477.619 445.283L457.611 433.743L516.115 399.967L536.225 411.446L477.619 445.283Z" fill="#2B454E"/>
<path d="M536.225 411.445L535.461 411.885L516.112 400.845L458.377 434.185L457.615 433.745L516.112 399.965L536.225 411.445Z" fill="#1A2E35"/>
<path d="M467.785 413.183L468.153 413.395L477.96 419.056L495.4 408.988L495.763 408.78L485.588 402.907L467.785 413.183Z" fill="#1A2E35"/>
<path d="M468.154 413.395L477.959 419.057L495.4 408.987L485.587 403.326L468.154 413.395Z" fill="#2B454E"/>
<path d="M486.764 420.191C483.959 417.408 479.888 413.551 476.468 412.418C476.027 412.276 475.363 411.968 474.064 411.67C475.243 411.438 476.428 411.356 477.579 410.968C478.722 410.583 479.81 409.952 480.548 408.999C480.846 408.616 481.055 408.006 480.68 407.698C480.546 407.587 480.368 407.524 480.192 407.519C477.63 407.442 475.611 407.043 473.284 406.875C472.267 406.802 471.126 406.666 470.144 406.932C469.19 407.192 468.238 407.47 467.302 407.794C463.051 409.264 459.176 410.588 453.158 409.187L442.328 403.41C442.328 403.41 440.014 402.831 436.604 408.606C433.194 414.379 435.186 417.551 435.186 417.551L447.351 421.75C447.41 421.772 447.464 421.794 447.526 421.818C448.864 422.319 450.07 423.364 453.267 424.346C457.058 425.508 461.906 424.134 465.2 423.958C468.494 423.782 474.075 425.304 477.131 426.544C480.186 427.784 483.854 423.079 485.386 423.644C486.918 424.211 489.57 422.972 486.764 420.191Z" fill="#FFAAA8"/>
<path d="M472.645 409.857C470.427 409.631 467.983 410.611 467.983 410.611C467.983 410.611 470.722 410.669 474.063 411.67C475.243 411.438 476.429 411.355 477.579 410.967C478.587 410.629 479.554 410.095 480.275 409.321C478.431 410.571 474.862 410.082 472.645 409.857Z" fill="#FF9090"/>
<path d="M413.863 316.826C416.946 318.044 420.954 330.887 418.485 343.249L412.749 381.895C412.749 381.895 419.775 386.057 429.634 392.162C436.467 396.394 442.326 400.274 442.329 403.409C437.853 405.017 433.833 413.255 435.186 417.55C432.13 421.171 403.919 405.533 394.057 398.786C389.483 395.66 387.177 394.425 388.937 380.305C390.885 364.677 392.219 347.315 395.263 335.73C398.441 323.637 401.978 318.942 413.863 316.826Z" fill="#3CA73D"/>
<mask id="mask23_102_3" style="mask-type:luminance" maskUnits="userSpaceOnUse" x="388" y="316" width="55" height="103">
<path d="M388.345 316.827H442.328V418.087H388.345V316.827Z" fill="white"/>
</mask>
<g mask="url(#mask23_102_3)">
<g opacity="0.699997">
<path d="M413.863 316.826C416.946 318.044 420.954 330.887 418.485 343.249L412.749 381.895C412.749 381.895 419.775 386.057 429.634 392.162C436.467 396.394 442.326 400.274 442.329 403.409C437.853 405.017 433.833 413.255 435.186 417.55C432.13 421.171 403.919 405.533 394.057 398.786C389.483 395.66 387.177 394.425 388.937 380.305C390.885 364.677 392.219 347.315 395.263 335.73C398.441 323.637 401.978 318.942 413.863 316.826Z" fill="white"/>
</g>
</g>
<path d="M478.969 448.959C480.153 449.416 481.498 449.328 482.618 448.678L544.906 412.715C546.002 412.083 546.754 410.999 546.966 409.754L553.785 369.088C553.823 368.856 553.842 368.626 553.842 368.394C553.842 367.26 553.39 366.176 552.59 365.382L487.861 402.759C487.051 403.228 486.495 404.03 486.338 404.951L478.969 448.959Z" fill="#2B454E"/>
<path d="M477.96 448.433L478.386 448.677C478.574 448.784 478.768 448.877 478.969 448.96L486.338 404.95C486.494 404.03 487.052 403.229 487.861 402.758L552.59 365.381C552.34 365.13 552.044 364.912 551.725 364.724L486.865 402.17C486.057 402.64 485.498 403.441 485.342 404.362L477.96 448.433Z" fill="#375A64"/>
<path d="M486.94 403.588L485.936 403.008C485.639 403.404 485.428 403.863 485.343 404.363L477.96 448.433L478.385 448.677C478.575 448.783 478.768 448.877 478.968 448.959L486.339 404.951C486.424 404.447 486.639 403.985 486.94 403.588Z" fill="#1A2E35"/>
<path d="M514.049 411.42C514.505 408.697 517.316 405.081 520.327 403.343C523.339 401.605 525.409 402.403 524.952 405.125C524.495 407.848 521.685 411.464 518.673 413.203C515.663 414.94 513.592 414.143 514.049 411.42Z" fill="#3CA73D"/>
</g>
</svg>
